<?xml version="1.0" encoding="UTF-8" standalone="no"?><svg xmlns="http://www.w3.org/2000/svg" xmlns:xlink="http://www.w3.org/1999/xlink" contentScriptType="application/ecmascript" contentStyleType="text/css" height="1066px" preserveAspectRatio="none" style="width:1945px;height:1066px;" version="1.1" viewBox="0 0 1945 1066" width="1945px" zoomAndPan="magnify"><defs><filter height="300%" id="fy65clgvnrwlu" width="300%" x="-1" y="-1"><feGaussianBlur result="blurOut" stdDeviation="2.0"/><feColorMatrix in="blurOut" result="blurOut2" type="matrix" values="0 0 0 0 0 0 0 0 0 0 0 0 0 0 0 0 0 0 .4 0"/><feOffset dx="4.0" dy="4.0" in="blurOut2" result="blurOut3"/><feBlend in="SourceGraphic" in2="blurOut3" mode="normal"/></filter></defs><g><!--class AsyncManualResetEvent--><rect fill="#FEFECE" filter="url(#fy65clgvnrwlu)" height="103.3438" id="AsyncManualResetEvent" style="stroke: #A80036; stroke-width: 1.5;" width="167" x="6" y="207"/><ellipse cx="21" cy="223" fill="#ADD1B2" rx="11" ry="11" style="stroke: #A80036; stroke-width: 1.0;"/><path d="M23.7656,218.875 Q23.9219,218.6563 24.1094,218.5469 Q24.2969,218.4375 24.5156,218.4375 Q24.8906,218.4375 25.125,218.6953 Q25.3594,218.9531 25.3594,219.5625 L25.3594,221.0156 Q25.3594,221.625 25.125,221.8906 Q24.8906,222.1563 24.5156,222.1563 Q24.1719,222.1563 23.9688,221.9531 Q23.7656,221.7656 23.6563,221.25 Q23.6094,220.8906 23.4219,220.7031 Q23.0938,220.3281 22.4844,220.1094 Q21.875,219.8906 21.25,219.8906 Q20.4844,219.8906 19.8516,220.2188 Q19.2188,220.5469 18.7266,221.2969 Q18.2344,222.0469 18.2344,223.0781 L18.2344,224.1719 Q18.2344,225.4063 19.125,226.2266 Q20.0156,227.0469 21.6094,227.0469 Q22.5469,227.0469 23.2031,226.7969 Q23.5938,226.6406 24.0156,226.2031 Q24.2813,225.9375 24.4297,225.8594 Q24.5781,225.7813 24.7813,225.7813 Q25.1094,225.7813 25.3672,226.0391 Q25.625,226.2969 25.625,226.6406 Q25.625,226.9844 25.2813,227.3906 Q24.7813,227.9688 23.9844,228.2969 Q22.9063,228.75 21.6094,228.75 Q20.0938,228.75 18.8906,228.125 Q17.9063,227.625 17.2188,226.5547 Q16.5313,225.4844 16.5313,224.2031 L16.5313,223.0469 Q16.5313,221.7188 17.1484,220.5703 Q17.7656,219.4219 18.8594,218.8047 Q19.9531,218.1875 21.1875,218.1875 Q21.9219,218.1875 22.5703,218.3516 Q23.2188,218.5156 23.7656,218.875 Z "/><text fill="#000000" font-family="sans-serif" font-size="12" lengthAdjust="spacingAndGlyphs" textLength="135" x="35" y="227.9102">AsyncManualResetEvent</text><line style="stroke: #A80036; stroke-width: 1.5;" x1="7" x2="172" y1="239" y2="239"/><line style="stroke: #A80036; stroke-width: 1.5;" x1="7" x2="172" y1="247" y2="247"/><ellipse cx="17" cy="259.418" fill="#84BE84" rx="3" ry="3" style="stroke: #038048; stroke-width: 1.0;"/><text fill="#000000" font-family="sans-serif" font-size="11" lengthAdjust="spacingAndGlyphs" textLength="93" x="26" y="262.4189">WaitAsync() : Task</text><ellipse cx="17" cy="273.2539" fill="#84BE84" rx="3" ry="3" style="stroke: #038048; stroke-width: 1.0;"/><text fill="#000000" font-family="sans-serif" font-size="11" lengthAdjust="spacingAndGlyphs" textLength="53" x="26" y="276.2549">Set() : void</text><ellipse cx="17" cy="287.0898" fill="#84BE84" rx="3" ry="3" style="stroke: #038048; stroke-width: 1.0;"/><text fill="#000000" font-family="sans-serif" font-size="11" lengthAdjust="spacingAndGlyphs" textLength="65" x="26" y="290.0908">Reset() : void</text><ellipse cx="17" cy="300.9258" fill="#84BE84" rx="3" ry="3" style="stroke: #038048; stroke-width: 1.0;"/><text fill="#000000" font-family="sans-serif" font-size="11" lengthAdjust="spacingAndGlyphs" textLength="76" x="26" y="303.9268">Dispose() : void</text><!--class TaskCompletionSource`1--><rect fill="#FEFECE" filter="url(#fy65clgvnrwlu)" height="48" id="TaskCompletionSource`1" style="stroke: #A80036; stroke-width: 1.5;" width="184" x="208.5" y="234.5"/><ellipse cx="223.5" cy="250.5" fill="#ADD1B2" rx="11" ry="11" style="stroke: #A80036; stroke-width: 1.0;"/><path d="M226.2656,246.375 Q226.4219,246.1563 226.6094,246.0469 Q226.7969,245.9375 227.0156,245.9375 Q227.3906,245.9375 227.625,246.1953 Q227.8594,246.4531 227.8594,247.0625 L227.8594,248.5156 Q227.8594,249.125 227.625,249.3906 Q227.3906,249.6563 227.0156,249.6563 Q226.6719,249.6563 226.4688,249.4531 Q226.2656,249.2656 226.1563,248.75 Q226.1094,248.3906 225.9219,248.2031 Q225.5938,247.8281 224.9844,247.6094 Q224.375,247.3906 223.75,247.3906 Q222.9844,247.3906 222.3516,247.7188 Q221.7188,248.0469 221.2266,248.7969 Q220.7344,249.5469 220.7344,250.5781 L220.7344,251.6719 Q220.7344,252.9063 221.625,253.7266 Q222.5156,254.5469 224.1094,254.5469 Q225.0469,254.5469 225.7031,254.2969 Q226.0938,254.1406 226.5156,253.7031 Q226.7813,253.4375 226.9297,253.3594 Q227.0781,253.2813 227.2813,253.2813 Q227.6094,253.2813 227.8672,253.5391 Q228.125,253.7969 228.125,254.1406 Q228.125,254.4844 227.7813,254.8906 Q227.2813,255.4688 226.4844,255.7969 Q225.4063,256.25 224.1094,256.25 Q222.5938,256.25 221.3906,255.625 Q220.4063,255.125 219.7188,254.0547 Q219.0313,252.9844 219.0313,251.7031 L219.0313,250.5469 Q219.0313,249.2188 219.6484,248.0703 Q220.2656,246.9219 221.3594,246.3047 Q222.4531,245.6875 223.6875,245.6875 Q224.4219,245.6875 225.0703,245.8516 Q225.7188,246.0156 226.2656,246.375 Z "/><text fill="#000000" font-family="sans-serif" font-size="12" lengthAdjust="spacingAndGlyphs" textLength="141" x="237.5" y="255.4102">TaskCompletionSource`1</text><rect fill="#FFFFFF" height="17.0938" style="stroke: #000000; stroke-width: 1.0; stroke-dasharray: 2.0,2.0;" width="9" x="386.5" y="231.5"/><text fill="#000000" font-family="sans-serif" font-size="12" font-style="italic" lengthAdjust="spacingAndGlyphs" textLength="7" x="387.5" y="244.957">T</text><line style="stroke: #A80036; stroke-width: 1.5;" x1="209.5" x2="391.5" y1="266.5" y2="266.5"/><line style="stroke: #A80036; stroke-width: 1.5;" x1="209.5" x2="391.5" y1="274.5" y2="274.5"/><!--class IDisposable--><rect fill="#FEFECE" filter="url(#fy65clgvnrwlu)" height="48" id="IDisposable" style="stroke: #A80036; stroke-width: 1.5;" width="99" x="40" y="53.5"/><ellipse cx="55" cy="69.5" fill="#ADD1B2" rx="11" ry="11" style="stroke: #A80036; stroke-width: 1.0;"/><path d="M57.7656,65.375 Q57.9219,65.1563 58.1094,65.0469 Q58.2969,64.9375 58.5156,64.9375 Q58.8906,64.9375 59.125,65.1953 Q59.3594,65.4531 59.3594,66.0625 L59.3594,67.5156 Q59.3594,68.125 59.125,68.3906 Q58.8906,68.6563 58.5156,68.6563 Q58.1719,68.6563 57.9688,68.4531 Q57.7656,68.2656 57.6563,67.75 Q57.6094,67.3906 57.4219,67.2031 Q57.0938,66.8281 56.4844,66.6094 Q55.875,66.3906 55.25,66.3906 Q54.4844,66.3906 53.8516,66.7188 Q53.2188,67.0469 52.7266,67.7969 Q52.2344,68.5469 52.2344,69.5781 L52.2344,70.6719 Q52.2344,71.9063 53.125,72.7266 Q54.0156,73.5469 55.6094,73.5469 Q56.5469,73.5469 57.2031,73.2969 Q57.5938,73.1406 58.0156,72.7031 Q58.2813,72.4375 58.4297,72.3594 Q58.5781,72.2813 58.7813,72.2813 Q59.1094,72.2813 59.3672,72.5391 Q59.625,72.7969 59.625,73.1406 Q59.625,73.4844 59.2813,73.8906 Q58.7813,74.4688 57.9844,74.7969 Q56.9063,75.25 55.6094,75.25 Q54.0938,75.25 52.8906,74.625 Q51.9063,74.125 51.2188,73.0547 Q50.5313,71.9844 50.5313,70.7031 L50.5313,69.5469 Q50.5313,68.2188 51.1484,67.0703 Q51.7656,65.9219 52.8594,65.3047 Q53.9531,64.6875 55.1875,64.6875 Q55.9219,64.6875 56.5703,64.8516 Q57.2188,65.0156 57.7656,65.375 Z "/><text fill="#000000" font-family="sans-serif" font-size="12" lengthAdjust="spacingAndGlyphs" textLength="67" x="69" y="74.4102">IDisposable</text><line style="stroke: #A80036; stroke-width: 1.5;" x1="41" x2="138" y1="85.5" y2="85.5"/><line style="stroke: #A80036; stroke-width: 1.5;" x1="41" x2="138" y1="93.5" y2="93.5"/><!--class EventPipe--><rect fill="#FEFECE" filter="url(#fy65clgvnrwlu)" height="227.8672" id="EventPipe" style="stroke: #A80036; stroke-width: 1.5;" width="398" x="348.5" y="711"/><ellipse cx="515.75" cy="727" fill="#ADD1B2" rx="11" ry="11" style="stroke: #A80036; stroke-width: 1.0;"/><path d="M518.5156,722.875 Q518.6719,722.6563 518.8594,722.5469 Q519.0469,722.4375 519.2656,722.4375 Q519.6406,722.4375 519.875,722.6953 Q520.1094,722.9531 520.1094,723.5625 L520.1094,725.0156 Q520.1094,725.625 519.875,725.8906 Q519.6406,726.1563 519.2656,726.1563 Q518.9219,726.1563 518.7188,725.9531 Q518.5156,725.7656 518.4063,725.25 Q518.3594,724.8906 518.1719,724.7031 Q517.8438,724.3281 517.2344,724.1094 Q516.625,723.8906 516,723.8906 Q515.2344,723.8906 514.6016,724.2188 Q513.9688,724.5469 513.4766,725.2969 Q512.9844,726.0469 512.9844,727.0781 L512.9844,728.1719 Q512.9844,729.4063 513.875,730.2266 Q514.7656,731.0469 516.3594,731.0469 Q517.2969,731.0469 517.9531,730.7969 Q518.3438,730.6406 518.7656,730.2031 Q519.0313,729.9375 519.1797,729.8594 Q519.3281,729.7813 519.5313,729.7813 Q519.8594,729.7813 520.1172,730.0391 Q520.375,730.2969 520.375,730.6406 Q520.375,730.9844 520.0313,731.3906 Q519.5313,731.9688 518.7344,732.2969 Q517.6563,732.75 516.3594,732.75 Q514.8438,732.75 513.6406,732.125 Q512.6563,731.625 511.9688,730.5547 Q511.2813,729.4844 511.2813,728.2031 L511.2813,727.0469 Q511.2813,725.7188 511.8984,724.5703 Q512.5156,723.4219 513.6094,722.8047 Q514.7031,722.1875 515.9375,722.1875 Q516.6719,722.1875 517.3203,722.3516 Q517.9688,722.5156 518.5156,722.875 Z "/><text fill="#000000" font-family="sans-serif" font-size="12" lengthAdjust="spacingAndGlyphs" textLength="55" x="536.25" y="731.9102">EventPipe</text><line style="stroke: #A80036; stroke-width: 1.5;" x1="349.5" x2="745.5" y1="743" y2="743"/><rect fill="none" height="6" style="stroke: #C82930; stroke-width: 1.0;" width="6" x="356.5" y="752.418"/><text fill="#000000" font-family="sans-serif" font-size="11" lengthAdjust="spacingAndGlyphs" textLength="93" x="368.5" y="758.4189">_isCompleted : bool</text><rect fill="none" height="6" style="stroke: #C82930; stroke-width: 1.0;" width="6" x="356.5" y="766.2539"/><text fill="#000000" font-family="sans-serif" font-size="11" lengthAdjust="spacingAndGlyphs" textLength="65" x="368.5" y="772.2549">_gate : object</text><ellipse cx="359.5" cy="783.0898" fill="none" rx="3" ry="3" style="stroke: #038048; stroke-width: 1.0;"/><text fill="#000000" font-family="sans-serif" font-size="11" lengthAdjust="spacingAndGlyphs" textLength="191" x="368.5" y="786.0908">IsDisposed : bool «get» «protected set»</text><line style="stroke: #A80036; stroke-width: 1.5;" x1="349.5" x2="745.5" y1="792.5078" y2="792.5078"/><ellipse cx="359.5" cy="804.9258" fill="#84BE84" rx="3" ry="3" style="stroke: #038048; stroke-width: 1.0;"/><text fill="#000000" font-family="sans-serif" font-size="11" lengthAdjust="spacingAndGlyphs" textLength="244" x="368.5" y="807.9268">ChainEvent(evnt:IEvent, doPreprocess:bool) : Task</text><ellipse cx="359.5" cy="818.7617" fill="#84BE84" rx="3" ry="3" style="stroke: #038048; stroke-width: 1.0;"/><text fill="#000000" font-family="sans-serif" font-size="11" lengthAdjust="spacingAndGlyphs" textLength="76" x="368.5" y="821.7627">Dispose() : void</text><ellipse cx="359.5" cy="832.5977" fill="#84BE84" rx="3" ry="3" style="stroke: #038048; stroke-width: 1.0;"/><text fill="#000000" font-family="sans-serif" font-size="11" lengthAdjust="spacingAndGlyphs" textLength="204" x="368.5" y="835.5986">«virtual» ProcessEvent(evnt:IEvent) : Task</text><ellipse cx="359.5" cy="846.4336" fill="#84BE84" rx="3" ry="3" style="stroke: #038048; stroke-width: 1.0;"/><text fill="#000000" font-family="sans-serif" font-size="11" lengthAdjust="spacingAndGlyphs" textLength="81" x="368.5" y="849.4346">Complete() : void</text><ellipse cx="359.5" cy="860.2695" fill="#84BE84" rx="3" ry="3" style="stroke: #038048; stroke-width: 1.0;"/><text fill="#000000" font-family="sans-serif" font-size="11" lengthAdjust="spacingAndGlyphs" textLength="372" x="368.5" y="863.2705">RunExclusiveOperation(action:Action, cancelToken:CancellationToken) : Task</text><ellipse cx="359.5" cy="874.1055" fill="#84BE84" rx="3" ry="3" style="stroke: #038048; stroke-width: 1.0;"/><text fill="#000000" font-family="sans-serif" font-size="11" lengthAdjust="spacingAndGlyphs" textLength="215" x="368.5" y="877.1064">RunExclusiveOperation(action:Action) : Task</text><ellipse cx="359.5" cy="887.9414" fill="#84BE84" rx="3" ry="3" style="stroke: #038048; stroke-width: 1.0;"/><text fill="#000000" font-family="sans-serif" font-size="11" lengthAdjust="spacingAndGlyphs" textLength="348" x="368.5" y="890.9424">SubscribePreprocess(observer:IObserver&lt;IEvent, IEvent&gt;) : IDisposable</text><polygon fill="#FFFF44" points="359.5,896.7773,363.5,900.7773,359.5,904.7773,355.5,900.7773" style="stroke: #B38D22; stroke-width: 1.0;"/><text fill="#000000" font-family="sans-serif" font-size="11" lengthAdjust="spacingAndGlyphs" textLength="189" x="368.5" y="904.7783">«virtual» Dispose(disposing:bool) : void</text><ellipse cx="359.5" cy="915.6133" fill="#84BE84" rx="3" ry="3" style="stroke: #038048; stroke-width: 1.0;"/><text fill="#000000" font-family="sans-serif" font-size="11" lengthAdjust="spacingAndGlyphs" textLength="209" x="368.5" y="918.6143">EventPipe(onReceiveScheduler:IScheduler)</text><ellipse cx="359.5" cy="929.4492" fill="#84BE84" rx="3" ry="3" style="stroke: #038048; stroke-width: 1.0;"/><text fill="#000000" font-family="sans-serif" font-size="11" lengthAdjust="spacingAndGlyphs" textLength="55" x="368.5" y="932.4502">EventPipe()</text><!--class Subject`1--><rect fill="#FEFECE" filter="url(#fy65clgvnrwlu)" height="48" id="Subject`1" style="stroke: #A80036; stroke-width: 1.5;" width="95" x="347" y="999"/><ellipse cx="362" cy="1015" fill="#ADD1B2" rx="11" ry="11" style="stroke: #A80036; stroke-width: 1.0;"/><path d="M364.7656,1010.875 Q364.9219,1010.6563 365.1094,1010.5469 Q365.2969,1010.4375 365.5156,1010.4375 Q365.8906,1010.4375 366.125,1010.6953 Q366.3594,1010.9531 366.3594,1011.5625 L366.3594,1013.0156 Q366.3594,1013.625 366.125,1013.8906 Q365.8906,1014.1563 365.5156,1014.1563 Q365.1719,1014.1563 364.9688,1013.9531 Q364.7656,1013.7656 364.6563,1013.25 Q364.6094,1012.8906 364.4219,1012.7031 Q364.0938,1012.3281 363.4844,1012.1094 Q362.875,1011.8906 362.25,1011.8906 Q361.4844,1011.8906 360.8516,1012.2188 Q360.2188,1012.5469 359.7266,1013.2969 Q359.2344,1014.0469 359.2344,1015.0781 L359.2344,1016.1719 Q359.2344,1017.4063 360.125,1018.2266 Q361.0156,1019.0469 362.6094,1019.0469 Q363.5469,1019.0469 364.2031,1018.7969 Q364.5938,1018.6406 365.0156,1018.2031 Q365.2813,1017.9375 365.4297,1017.8594 Q365.5781,1017.7813 365.7813,1017.7813 Q366.1094,1017.7813 366.3672,1018.0391 Q366.625,1018.2969 366.625,1018.6406 Q366.625,1018.9844 366.2813,1019.3906 Q365.7813,1019.9688 364.9844,1020.2969 Q363.9063,1020.75 362.6094,1020.75 Q361.0938,1020.75 359.8906,1020.125 Q358.9063,1019.625 358.2188,1018.5547 Q357.5313,1017.4844 357.5313,1016.2031 L357.5313,1015.0469 Q357.5313,1013.7188 358.1484,1012.5703 Q358.7656,1011.4219 359.8594,1010.8047 Q360.9531,1010.1875 362.1875,1010.1875 Q362.9219,1010.1875 363.5703,1010.3516 Q364.2188,1010.5156 364.7656,1010.875 Z "/><text fill="#000000" font-family="sans-serif" font-size="12" lengthAdjust="spacingAndGlyphs" textLength="52" x="376" y="1019.9102">Subject`1</text><rect fill="#FFFFFF" height="17.0938" style="stroke: #000000; stroke-width: 1.0; stroke-dasharray: 2.0,2.0;" width="9" x="436" y="996"/><text fill="#000000" font-family="sans-serif" font-size="12" font-style="italic" lengthAdjust="spacingAndGlyphs" textLength="7" x="437" y="1009.457">T</text><line style="stroke: #A80036; stroke-width: 1.5;" x1="348" x2="441" y1="1031" y2="1031"/><line style="stroke: #A80036; stroke-width: 1.5;" x1="348" x2="441" y1="1039" y2="1039"/><!--class ConcurrentDictionary`2--><rect fill="#FEFECE" filter="url(#fy65clgvnrwlu)" height="48" id="ConcurrentDictionary`2" style="stroke: #A80036; stroke-width: 1.5;" width="193" x="907" y="801"/><ellipse cx="922" cy="817" fill="#ADD1B2" rx="11" ry="11" style="stroke: #A80036; stroke-width: 1.0;"/><path d="M924.7656,812.875 Q924.9219,812.6563 925.1094,812.5469 Q925.2969,812.4375 925.5156,812.4375 Q925.8906,812.4375 926.125,812.6953 Q926.3594,812.9531 926.3594,813.5625 L926.3594,815.0156 Q926.3594,815.625 926.125,815.8906 Q925.8906,816.1563 925.5156,816.1563 Q925.1719,816.1563 924.9688,815.9531 Q924.7656,815.7656 924.6563,815.25 Q924.6094,814.8906 924.4219,814.7031 Q924.0938,814.3281 923.4844,814.1094 Q922.875,813.8906 922.25,813.8906 Q921.4844,813.8906 920.8516,814.2188 Q920.2188,814.5469 919.7266,815.2969 Q919.2344,816.0469 919.2344,817.0781 L919.2344,818.1719 Q919.2344,819.4063 920.125,820.2266 Q921.0156,821.0469 922.6094,821.0469 Q923.5469,821.0469 924.2031,820.7969 Q924.5938,820.6406 925.0156,820.2031 Q925.2813,819.9375 925.4297,819.8594 Q925.5781,819.7813 925.7813,819.7813 Q926.1094,819.7813 926.3672,820.0391 Q926.625,820.2969 926.625,820.6406 Q926.625,820.9844 926.2813,821.3906 Q925.7813,821.9688 924.9844,822.2969 Q923.9063,822.75 922.6094,822.75 Q921.0938,822.75 919.8906,822.125 Q918.9063,821.625 918.2188,820.5547 Q917.5313,819.4844 917.5313,818.2031 L917.5313,817.0469 Q917.5313,815.7188 918.1484,814.5703 Q918.7656,813.4219 919.8594,812.8047 Q920.9531,812.1875 922.1875,812.1875 Q922.9219,812.1875 923.5703,812.3516 Q924.2188,812.5156 924.7656,812.875 Z "/><text fill="#000000" font-family="sans-serif" font-size="12" lengthAdjust="spacingAndGlyphs" textLength="126" x="936" y="821.9102">ConcurrentDictionary`2</text><rect fill="#FFFFFF" height="17.0938" style="stroke: #000000; stroke-width: 1.0; stroke-dasharray: 2.0,2.0;" width="33" x="1070" y="798"/><text fill="#000000" font-family="sans-serif" font-size="12" font-style="italic" lengthAdjust="spacingAndGlyphs" textLength="31" x="1071" y="811.457">T1,T2</text><line style="stroke: #A80036; stroke-width: 1.5;" x1="908" x2="1099" y1="833" y2="833"/><line style="stroke: #A80036; stroke-width: 1.5;" x1="908" x2="1099" y1="841" y2="841"/><!--class IObservable`1--><rect fill="#FEFECE" filter="url(#fy65clgvnrwlu)" height="48" id="IObservable`1" style="stroke: #A80036; stroke-width: 1.5;" width="120" x="191.5" y="999"/><ellipse cx="206.5" cy="1015" fill="#ADD1B2" rx="11" ry="11" style="stroke: #A80036; stroke-width: 1.0;"/><path d="M209.2656,1010.875 Q209.4219,1010.6563 209.6094,1010.5469 Q209.7969,1010.4375 210.0156,1010.4375 Q210.3906,1010.4375 210.625,1010.6953 Q210.8594,1010.9531 210.8594,1011.5625 L210.8594,1013.0156 Q210.8594,1013.625 210.625,1013.8906 Q210.3906,1014.1563 210.0156,1014.1563 Q209.6719,1014.1563 209.4688,1013.9531 Q209.2656,1013.7656 209.1563,1013.25 Q209.1094,1012.8906 208.9219,1012.7031 Q208.5938,1012.3281 207.9844,1012.1094 Q207.375,1011.8906 206.75,1011.8906 Q205.9844,1011.8906 205.3516,1012.2188 Q204.7188,1012.5469 204.2266,1013.2969 Q203.7344,1014.0469 203.7344,1015.0781 L203.7344,1016.1719 Q203.7344,1017.4063 204.625,1018.2266 Q205.5156,1019.0469 207.1094,1019.0469 Q208.0469,1019.0469 208.7031,1018.7969 Q209.0938,1018.6406 209.5156,1018.2031 Q209.7813,1017.9375 209.9297,1017.8594 Q210.0781,1017.7813 210.2813,1017.7813 Q210.6094,1017.7813 210.8672,1018.0391 Q211.125,1018.2969 211.125,1018.6406 Q211.125,1018.9844 210.7813,1019.3906 Q210.2813,1019.9688 209.4844,1020.2969 Q208.4063,1020.75 207.1094,1020.75 Q205.5938,1020.75 204.3906,1020.125 Q203.4063,1019.625 202.7188,1018.5547 Q202.0313,1017.4844 202.0313,1016.2031 L202.0313,1015.0469 Q202.0313,1013.7188 202.6484,1012.5703 Q203.2656,1011.4219 204.3594,1010.8047 Q205.4531,1010.1875 206.6875,1010.1875 Q207.4219,1010.1875 208.0703,1010.3516 Q208.7188,1010.5156 209.2656,1010.875 Z "/><text fill="#000000" font-family="sans-serif" font-size="12" lengthAdjust="spacingAndGlyphs" textLength="77" x="220.5" y="1019.9102">IObservable`1</text><rect fill="#FFFFFF" height="17.0938" style="stroke: #000000; stroke-width: 1.0; stroke-dasharray: 2.0,2.0;" width="9" x="305.5" y="996"/><text fill="#000000" font-family="sans-serif" font-size="12" font-style="italic" lengthAdjust="spacingAndGlyphs" textLength="7" x="306.5" y="1009.457">T</text><line style="stroke: #A80036; stroke-width: 1.5;" x1="192.5" x2="310.5" y1="1031" y2="1031"/><line style="stroke: #A80036; stroke-width: 1.5;" x1="192.5" x2="310.5" y1="1039" y2="1039"/><!--class IEventPipe--><rect fill="#FEFECE" filter="url(#fy65clgvnrwlu)" height="131.0156" id="IEventPipe" style="stroke: #A80036; stroke-width: 1.5;" width="382" x="356.5" y="520"/><ellipse cx="513.25" cy="536" fill="#B4A7E5" rx="11" ry="11" style="stroke: #A80036; stroke-width: 1.0;"/><path d="M514.2031,532.6406 L514.2031,539.2969 L515.9219,539.2969 Q516.5313,539.2969 516.7969,539.5313 Q517.0625,539.7656 517.0625,540.1563 Q517.0625,540.5313 516.7969,540.7656 Q516.5313,541 515.9219,541 L510.7813,541 Q510.1719,541 509.9063,540.7656 Q509.6406,540.5313 509.6406,540.1406 Q509.6406,539.7656 509.9063,539.5313 Q510.1719,539.2969 510.7813,539.2969 L512.5,539.2969 L512.5,532.6406 L510.7813,532.6406 Q510.1719,532.6406 509.9063,532.4063 Q509.6406,532.1719 509.6406,531.7813 Q509.6406,531.4063 509.9063,531.1719 Q510.1719,530.9375 510.7813,530.9375 L515.9219,530.9375 Q516.5313,530.9375 516.7969,531.1719 Q517.0625,531.4063 517.0625,531.7813 Q517.0625,532.1719 516.7969,532.4063 Q516.5313,532.6406 515.9219,532.6406 L514.2031,532.6406 Z "/><text fill="#000000" font-family="sans-serif" font-size="12" font-style="italic" lengthAdjust="spacingAndGlyphs" textLength="60" x="533.75" y="540.9102">IEventPipe</text><line style="stroke: #A80036; stroke-width: 1.5;" x1="357.5" x2="737.5" y1="552" y2="552"/><line style="stroke: #A80036; stroke-width: 1.5;" x1="357.5" x2="737.5" y1="560" y2="560"/><text fill="#000000" font-family="sans-serif" font-size="11" lengthAdjust="spacingAndGlyphs" textLength="370" x="362.5" y="575.4189">SubscribePreprocess(preprocessor:IObserver&lt;IEvent, IEvent&gt;) : IDisposable</text><text fill="#000000" font-family="sans-serif" font-size="11" lengthAdjust="spacingAndGlyphs" textLength="81" x="362.5" y="589.2549">Complete() : void</text><text fill="#000000" font-family="sans-serif" font-size="11" lengthAdjust="spacingAndGlyphs" textLength="215" x="362.5" y="603.0908">RunExclusiveOperation(action:Action) : Task</text><text fill="#000000" font-family="sans-serif" font-size="11" lengthAdjust="spacingAndGlyphs" textLength="337" x="362.5" y="616.9268">RunExclusiveOperation(action:Action, token:CancellationToken) : Task</text><text fill="#000000" font-family="sans-serif" font-size="11" lengthAdjust="spacingAndGlyphs" textLength="244" x="362.5" y="630.7627">ChainEvent(evnt:IEvent, doPreprocess:bool) : Task</text><text fill="#000000" font-family="sans-serif" font-size="11" lengthAdjust="spacingAndGlyphs" textLength="160" x="362.5" y="644.5986">ProcessEvent(evnt:IEvent) : Task</text><!--class TaskPoolScheduler--><rect fill="#FEFECE" filter="url(#fy65clgvnrwlu)" height="48" id="TaskPoolScheduler" style="stroke: #A80036; stroke-width: 1.5;" width="140" x="477.5" y="999"/><ellipse cx="492.5" cy="1015" fill="#ADD1B2" rx="11" ry="11" style="stroke: #A80036; stroke-width: 1.0;"/><path d="M495.2656,1010.875 Q495.4219,1010.6563 495.6094,1010.5469 Q495.7969,1010.4375 496.0156,1010.4375 Q496.3906,1010.4375 496.625,1010.6953 Q496.8594,1010.9531 496.8594,1011.5625 L496.8594,1013.0156 Q496.8594,1013.625 496.625,1013.8906 Q496.3906,1014.1563 496.0156,1014.1563 Q495.6719,1014.1563 495.4688,1013.9531 Q495.2656,1013.7656 495.1563,1013.25 Q495.1094,1012.8906 494.9219,1012.7031 Q494.5938,1012.3281 493.9844,1012.1094 Q493.375,1011.8906 492.75,1011.8906 Q491.9844,1011.8906 491.3516,1012.2188 Q490.7188,1012.5469 490.2266,1013.2969 Q489.7344,1014.0469 489.7344,1015.0781 L489.7344,1016.1719 Q489.7344,1017.4063 490.625,1018.2266 Q491.5156,1019.0469 493.1094,1019.0469 Q494.0469,1019.0469 494.7031,1018.7969 Q495.0938,1018.6406 495.5156,1018.2031 Q495.7813,1017.9375 495.9297,1017.8594 Q496.0781,1017.7813 496.2813,1017.7813 Q496.6094,1017.7813 496.8672,1018.0391 Q497.125,1018.2969 497.125,1018.6406 Q497.125,1018.9844 496.7813,1019.3906 Q496.2813,1019.9688 495.4844,1020.2969 Q494.4063,1020.75 493.1094,1020.75 Q491.5938,1020.75 490.3906,1020.125 Q489.4063,1019.625 488.7188,1018.5547 Q488.0313,1017.4844 488.0313,1016.2031 L488.0313,1015.0469 Q488.0313,1013.7188 488.6484,1012.5703 Q489.2656,1011.4219 490.3594,1010.8047 Q491.4531,1010.1875 492.6875,1010.1875 Q493.4219,1010.1875 494.0703,1010.3516 Q494.7188,1010.5156 495.2656,1010.875 Z "/><text fill="#000000" font-family="sans-serif" font-size="12" lengthAdjust="spacingAndGlyphs" textLength="108" x="506.5" y="1019.9102">TaskPoolScheduler</text><line style="stroke: #A80036; stroke-width: 1.5;" x1="478.5" x2="616.5" y1="1031" y2="1031"/><line style="stroke: #A80036; stroke-width: 1.5;" x1="478.5" x2="616.5" y1="1039" y2="1039"/><!--class IScheduler--><rect fill="#FEFECE" filter="url(#fy65clgvnrwlu)" height="48" id="IScheduler" style="stroke: #A80036; stroke-width: 1.5;" width="91" x="653" y="999"/><ellipse cx="668" cy="1015" fill="#ADD1B2" rx="11" ry="11" style="stroke: #A80036; stroke-width: 1.0;"/><path d="M670.7656,1010.875 Q670.9219,1010.6563 671.1094,1010.5469 Q671.2969,1010.4375 671.5156,1010.4375 Q671.8906,1010.4375 672.125,1010.6953 Q672.3594,1010.9531 672.3594,1011.5625 L672.3594,1013.0156 Q672.3594,1013.625 672.125,1013.8906 Q671.8906,1014.1563 671.5156,1014.1563 Q671.1719,1014.1563 670.9688,1013.9531 Q670.7656,1013.7656 670.6563,1013.25 Q670.6094,1012.8906 670.4219,1012.7031 Q670.0938,1012.3281 669.4844,1012.1094 Q668.875,1011.8906 668.25,1011.8906 Q667.4844,1011.8906 666.8516,1012.2188 Q666.2188,1012.5469 665.7266,1013.2969 Q665.2344,1014.0469 665.2344,1015.0781 L665.2344,1016.1719 Q665.2344,1017.4063 666.125,1018.2266 Q667.0156,1019.0469 668.6094,1019.0469 Q669.5469,1019.0469 670.2031,1018.7969 Q670.5938,1018.6406 671.0156,1018.2031 Q671.2813,1017.9375 671.4297,1017.8594 Q671.5781,1017.7813 671.7813,1017.7813 Q672.1094,1017.7813 672.3672,1018.0391 Q672.625,1018.2969 672.625,1018.6406 Q672.625,1018.9844 672.2813,1019.3906 Q671.7813,1019.9688 670.9844,1020.2969 Q669.9063,1020.75 668.6094,1020.75 Q667.0938,1020.75 665.8906,1020.125 Q664.9063,1019.625 664.2188,1018.5547 Q663.5313,1017.4844 663.5313,1016.2031 L663.5313,1015.0469 Q663.5313,1013.7188 664.1484,1012.5703 Q664.7656,1011.4219 665.8594,1010.8047 Q666.9531,1010.1875 668.1875,1010.1875 Q668.9219,1010.1875 669.5703,1010.3516 Q670.2188,1010.5156 670.7656,1010.875 Z "/><text fill="#000000" font-family="sans-serif" font-size="12" lengthAdjust="spacingAndGlyphs" textLength="59" x="682" y="1019.9102">IScheduler</text><line style="stroke: #A80036; stroke-width: 1.5;" x1="654" x2="743" y1="1031" y2="1031"/><line style="stroke: #A80036; stroke-width: 1.5;" x1="654" x2="743" y1="1039" y2="1039"/><!--class SynchronizationContext--><rect fill="#FEFECE" filter="url(#fy65clgvnrwlu)" height="48" id="SynchronizationContext" style="stroke: #A80036; stroke-width: 1.5;" width="159" x="779" y="999"/><ellipse cx="794" cy="1015" fill="#ADD1B2" rx="11" ry="11" style="stroke: #A80036; stroke-width: 1.0;"/><path d="M796.7656,1010.875 Q796.9219,1010.6563 797.1094,1010.5469 Q797.2969,1010.4375 797.5156,1010.4375 Q797.8906,1010.4375 798.125,1010.6953 Q798.3594,1010.9531 798.3594,1011.5625 L798.3594,1013.0156 Q798.3594,1013.625 798.125,1013.8906 Q797.8906,1014.1563 797.5156,1014.1563 Q797.1719,1014.1563 796.9688,1013.9531 Q796.7656,1013.7656 796.6563,1013.25 Q796.6094,1012.8906 796.4219,1012.7031 Q796.0938,1012.3281 795.4844,1012.1094 Q794.875,1011.8906 794.25,1011.8906 Q793.4844,1011.8906 792.8516,1012.2188 Q792.2188,1012.5469 791.7266,1013.2969 Q791.2344,1014.0469 791.2344,1015.0781 L791.2344,1016.1719 Q791.2344,1017.4063 792.125,1018.2266 Q793.0156,1019.0469 794.6094,1019.0469 Q795.5469,1019.0469 796.2031,1018.7969 Q796.5938,1018.6406 797.0156,1018.2031 Q797.2813,1017.9375 797.4297,1017.8594 Q797.5781,1017.7813 797.7813,1017.7813 Q798.1094,1017.7813 798.3672,1018.0391 Q798.625,1018.2969 798.625,1018.6406 Q798.625,1018.9844 798.2813,1019.3906 Q797.7813,1019.9688 796.9844,1020.2969 Q795.9063,1020.75 794.6094,1020.75 Q793.0938,1020.75 791.8906,1020.125 Q790.9063,1019.625 790.2188,1018.5547 Q789.5313,1017.4844 789.5313,1016.2031 L789.5313,1015.0469 Q789.5313,1013.7188 790.1484,1012.5703 Q790.7656,1011.4219 791.8594,1010.8047 Q792.9531,1010.1875 794.1875,1010.1875 Q794.9219,1010.1875 795.5703,1010.3516 Q796.2188,1010.5156 796.7656,1010.875 Z "/><text fill="#000000" font-family="sans-serif" font-size="12" lengthAdjust="spacingAndGlyphs" textLength="127" x="808" y="1019.9102">SynchronizationContext</text><line style="stroke: #A80036; stroke-width: 1.5;" x1="780" x2="937" y1="1031" y2="1031"/><line style="stroke: #A80036; stroke-width: 1.5;" x1="780" x2="937" y1="1039" y2="1039"/><!--class ConcurrentExclusiveSchedulerPair--><rect fill="#FEFECE" filter="url(#fy65clgvnrwlu)" height="48" id="ConcurrentExclusiveSchedulerPair" style="stroke: #A80036; stroke-width: 1.5;" width="222" x="973.5" y="999"/><ellipse cx="988.5" cy="1015" fill="#ADD1B2" rx="11" ry="11" style="stroke: #A80036; stroke-width: 1.0;"/><path d="M991.2656,1010.875 Q991.4219,1010.6563 991.6094,1010.5469 Q991.7969,1010.4375 992.0156,1010.4375 Q992.3906,1010.4375 992.625,1010.6953 Q992.8594,1010.9531 992.8594,1011.5625 L992.8594,1013.0156 Q992.8594,1013.625 992.625,1013.8906 Q992.3906,1014.1563 992.0156,1014.1563 Q991.6719,1014.1563 991.4688,1013.9531 Q991.2656,1013.7656 991.1563,1013.25 Q991.1094,1012.8906 990.9219,1012.7031 Q990.5938,1012.3281 989.9844,1012.1094 Q989.375,1011.8906 988.75,1011.8906 Q987.9844,1011.8906 987.3516,1012.2188 Q986.7188,1012.5469 986.2266,1013.2969 Q985.7344,1014.0469 985.7344,1015.0781 L985.7344,1016.1719 Q985.7344,1017.4063 986.625,1018.2266 Q987.5156,1019.0469 989.1094,1019.0469 Q990.0469,1019.0469 990.7031,1018.7969 Q991.0938,1018.6406 991.5156,1018.2031 Q991.7813,1017.9375 991.9297,1017.8594 Q992.0781,1017.7813 992.2813,1017.7813 Q992.6094,1017.7813 992.8672,1018.0391 Q993.125,1018.2969 993.125,1018.6406 Q993.125,1018.9844 992.7813,1019.3906 Q992.2813,1019.9688 991.4844,1020.2969 Q990.4063,1020.75 989.1094,1020.75 Q987.5938,1020.75 986.3906,1020.125 Q985.4063,1019.625 984.7188,1018.5547 Q984.0313,1017.4844 984.0313,1016.2031 L984.0313,1015.0469 Q984.0313,1013.7188 984.6484,1012.5703 Q985.2656,1011.4219 986.3594,1010.8047 Q987.4531,1010.1875 988.6875,1010.1875 Q989.4219,1010.1875 990.0703,1010.3516 Q990.7188,1010.5156 991.2656,1010.875 Z "/><text fill="#000000" font-family="sans-serif" font-size="12" lengthAdjust="spacingAndGlyphs" textLength="190" x="1002.5" y="1019.9102">ConcurrentExclusiveSchedulerPair</text><line style="stroke: #A80036; stroke-width: 1.5;" x1="974.5" x2="1194.5" y1="1031" y2="1031"/><line style="stroke: #A80036; stroke-width: 1.5;" x1="974.5" x2="1194.5" y1="1039" y2="1039"/><!--class TaskFactory--><rect fill="#FEFECE" filter="url(#fy65clgvnrwlu)" height="48" id="TaskFactory" style="stroke: #A80036; stroke-width: 1.5;" width="98" x="1230.5" y="999"/><ellipse cx="1245.5" cy="1015" fill="#ADD1B2" rx="11" ry="11" style="stroke: #A80036; stroke-width: 1.0;"/><path d="M1248.2656,1010.875 Q1248.4219,1010.6563 1248.6094,1010.5469 Q1248.7969,1010.4375 1249.0156,1010.4375 Q1249.3906,1010.4375 1249.625,1010.6953 Q1249.8594,1010.9531 1249.8594,1011.5625 L1249.8594,1013.0156 Q1249.8594,1013.625 1249.625,1013.8906 Q1249.3906,1014.1563 1249.0156,1014.1563 Q1248.6719,1014.1563 1248.4688,1013.9531 Q1248.2656,1013.7656 1248.1563,1013.25 Q1248.1094,1012.8906 1247.9219,1012.7031 Q1247.5938,1012.3281 1246.9844,1012.1094 Q1246.375,1011.8906 1245.75,1011.8906 Q1244.9844,1011.8906 1244.3516,1012.2188 Q1243.7188,1012.5469 1243.2266,1013.2969 Q1242.7344,1014.0469 1242.7344,1015.0781 L1242.7344,1016.1719 Q1242.7344,1017.4063 1243.625,1018.2266 Q1244.5156,1019.0469 1246.1094,1019.0469 Q1247.0469,1019.0469 1247.7031,1018.7969 Q1248.0938,1018.6406 1248.5156,1018.2031 Q1248.7813,1017.9375 1248.9297,1017.8594 Q1249.0781,1017.7813 1249.2813,1017.7813 Q1249.6094,1017.7813 1249.8672,1018.0391 Q1250.125,1018.2969 1250.125,1018.6406 Q1250.125,1018.9844 1249.7813,1019.3906 Q1249.2813,1019.9688 1248.4844,1020.2969 Q1247.4063,1020.75 1246.1094,1020.75 Q1244.5938,1020.75 1243.3906,1020.125 Q1242.4063,1019.625 1241.7188,1018.5547 Q1241.0313,1017.4844 1241.0313,1016.2031 L1241.0313,1015.0469 Q1241.0313,1013.7188 1241.6484,1012.5703 Q1242.2656,1011.4219 1243.3594,1010.8047 Q1244.4531,1010.1875 1245.6875,1010.1875 Q1246.4219,1010.1875 1247.0703,1010.3516 Q1247.7188,1010.5156 1248.2656,1010.875 Z "/><text fill="#000000" font-family="sans-serif" font-size="12" lengthAdjust="spacingAndGlyphs" textLength="66" x="1259.5" y="1019.9102">TaskFactory</text><line style="stroke: #A80036; stroke-width: 1.5;" x1="1231.5" x2="1327.5" y1="1031" y2="1031"/><line style="stroke: #A80036; stroke-width: 1.5;" x1="1231.5" x2="1327.5" y1="1039" y2="1039"/><!--class AsyncLock--><rect fill="#FEFECE" filter="url(#fy65clgvnrwlu)" height="48" id="AsyncLock" style="stroke: #A80036; stroke-width: 1.5;" width="90" x="781.5" y="801"/><ellipse cx="796.5" cy="817" fill="#ADD1B2" rx="11" ry="11" style="stroke: #A80036; stroke-width: 1.0;"/><path d="M799.2656,812.875 Q799.4219,812.6563 799.6094,812.5469 Q799.7969,812.4375 800.0156,812.4375 Q800.3906,812.4375 800.625,812.6953 Q800.8594,812.9531 800.8594,813.5625 L800.8594,815.0156 Q800.8594,815.625 800.625,815.8906 Q800.3906,816.1563 800.0156,816.1563 Q799.6719,816.1563 799.4688,815.9531 Q799.2656,815.7656 799.1563,815.25 Q799.1094,814.8906 798.9219,814.7031 Q798.5938,814.3281 797.9844,814.1094 Q797.375,813.8906 796.75,813.8906 Q795.9844,813.8906 795.3516,814.2188 Q794.7188,814.5469 794.2266,815.2969 Q793.7344,816.0469 793.7344,817.0781 L793.7344,818.1719 Q793.7344,819.4063 794.625,820.2266 Q795.5156,821.0469 797.1094,821.0469 Q798.0469,821.0469 798.7031,820.7969 Q799.0938,820.6406 799.5156,820.2031 Q799.7813,819.9375 799.9297,819.8594 Q800.0781,819.7813 800.2813,819.7813 Q800.6094,819.7813 800.8672,820.0391 Q801.125,820.2969 801.125,820.6406 Q801.125,820.9844 800.7813,821.3906 Q800.2813,821.9688 799.4844,822.2969 Q798.4063,822.75 797.1094,822.75 Q795.5938,822.75 794.3906,822.125 Q793.4063,821.625 792.7188,820.5547 Q792.0313,819.4844 792.0313,818.2031 L792.0313,817.0469 Q792.0313,815.7188 792.6484,814.5703 Q793.2656,813.4219 794.3594,812.8047 Q795.4531,812.1875 796.6875,812.1875 Q797.4219,812.1875 798.0703,812.3516 Q798.7188,812.5156 799.2656,812.875 Z "/><text fill="#000000" font-family="sans-serif" font-size="12" lengthAdjust="spacingAndGlyphs" textLength="58" x="810.5" y="821.9102">AsyncLock</text><line style="stroke: #A80036; stroke-width: 1.5;" x1="782.5" x2="870.5" y1="833" y2="833"/><line style="stroke: #A80036; stroke-width: 1.5;" x1="782.5" x2="870.5" y1="841" y2="841"/><!--class CancellationToken--><rect fill="#FEFECE" filter="url(#fy65clgvnrwlu)" height="48" id="CancellationToken" style="stroke: #A80036; stroke-width: 1.5;" width="135" x="1573" y="999"/><ellipse cx="1588" cy="1015" fill="#ADD1B2" rx="11" ry="11" style="stroke: #A80036; stroke-width: 1.0;"/><path d="M1590.7656,1010.875 Q1590.9219,1010.6563 1591.1094,1010.5469 Q1591.2969,1010.4375 1591.5156,1010.4375 Q1591.8906,1010.4375 1592.125,1010.6953 Q1592.3594,1010.9531 1592.3594,1011.5625 L1592.3594,1013.0156 Q1592.3594,1013.625 1592.125,1013.8906 Q1591.8906,1014.1563 1591.5156,1014.1563 Q1591.1719,1014.1563 1590.9688,1013.9531 Q1590.7656,1013.7656 1590.6563,1013.25 Q1590.6094,1012.8906 1590.4219,1012.7031 Q1590.0938,1012.3281 1589.4844,1012.1094 Q1588.875,1011.8906 1588.25,1011.8906 Q1587.4844,1011.8906 1586.8516,1012.2188 Q1586.2188,1012.5469 1585.7266,1013.2969 Q1585.2344,1014.0469 1585.2344,1015.0781 L1585.2344,1016.1719 Q1585.2344,1017.4063 1586.125,1018.2266 Q1587.0156,1019.0469 1588.6094,1019.0469 Q1589.5469,1019.0469 1590.2031,1018.7969 Q1590.5938,1018.6406 1591.0156,1018.2031 Q1591.2813,1017.9375 1591.4297,1017.8594 Q1591.5781,1017.7813 1591.7813,1017.7813 Q1592.1094,1017.7813 1592.3672,1018.0391 Q1592.625,1018.2969 1592.625,1018.6406 Q1592.625,1018.9844 1592.2813,1019.3906 Q1591.7813,1019.9688 1590.9844,1020.2969 Q1589.9063,1020.75 1588.6094,1020.75 Q1587.0938,1020.75 1585.8906,1020.125 Q1584.9063,1019.625 1584.2188,1018.5547 Q1583.5313,1017.4844 1583.5313,1016.2031 L1583.5313,1015.0469 Q1583.5313,1013.7188 1584.1484,1012.5703 Q1584.7656,1011.4219 1585.8594,1010.8047 Q1586.9531,1010.1875 1588.1875,1010.1875 Q1588.9219,1010.1875 1589.5703,1010.3516 Q1590.2188,1010.5156 1590.7656,1010.875 Z "/><text fill="#000000" font-family="sans-serif" font-size="12" lengthAdjust="spacingAndGlyphs" textLength="103" x="1602" y="1019.9102">CancellationToken</text><line style="stroke: #A80036; stroke-width: 1.5;" x1="1574" x2="1707" y1="1031" y2="1031"/><line style="stroke: #A80036; stroke-width: 1.5;" x1="1574" x2="1707" y1="1039" y2="1039"/><!--class CancellationTokenSource--><rect fill="#FEFECE" filter="url(#fy65clgvnrwlu)" height="48" id="CancellationTokenSource" style="stroke: #A80036; stroke-width: 1.5;" width="174" x="1363.5" y="999"/><ellipse cx="1378.5" cy="1015" fill="#ADD1B2" rx="11" ry="11" style="stroke: #A80036; stroke-width: 1.0;"/><path d="M1381.2656,1010.875 Q1381.4219,1010.6563 1381.6094,1010.5469 Q1381.7969,1010.4375 1382.0156,1010.4375 Q1382.3906,1010.4375 1382.625,1010.6953 Q1382.8594,1010.9531 1382.8594,1011.5625 L1382.8594,1013.0156 Q1382.8594,1013.625 1382.625,1013.8906 Q1382.3906,1014.1563 1382.0156,1014.1563 Q1381.6719,1014.1563 1381.4688,1013.9531 Q1381.2656,1013.7656 1381.1563,1013.25 Q1381.1094,1012.8906 1380.9219,1012.7031 Q1380.5938,1012.3281 1379.9844,1012.1094 Q1379.375,1011.8906 1378.75,1011.8906 Q1377.9844,1011.8906 1377.3516,1012.2188 Q1376.7188,1012.5469 1376.2266,1013.2969 Q1375.7344,1014.0469 1375.7344,1015.0781 L1375.7344,1016.1719 Q1375.7344,1017.4063 1376.625,1018.2266 Q1377.5156,1019.0469 1379.1094,1019.0469 Q1380.0469,1019.0469 1380.7031,1018.7969 Q1381.0938,1018.6406 1381.5156,1018.2031 Q1381.7813,1017.9375 1381.9297,1017.8594 Q1382.0781,1017.7813 1382.2813,1017.7813 Q1382.6094,1017.7813 1382.8672,1018.0391 Q1383.125,1018.2969 1383.125,1018.6406 Q1383.125,1018.9844 1382.7813,1019.3906 Q1382.2813,1019.9688 1381.4844,1020.2969 Q1380.4063,1020.75 1379.1094,1020.75 Q1377.5938,1020.75 1376.3906,1020.125 Q1375.4063,1019.625 1374.7188,1018.5547 Q1374.0313,1017.4844 1374.0313,1016.2031 L1374.0313,1015.0469 Q1374.0313,1013.7188 1374.6484,1012.5703 Q1375.2656,1011.4219 1376.3594,1010.8047 Q1377.4531,1010.1875 1378.6875,1010.1875 Q1379.4219,1010.1875 1380.0703,1010.3516 Q1380.7188,1010.5156 1381.2656,1010.875 Z "/><text fill="#000000" font-family="sans-serif" font-size="12" lengthAdjust="spacingAndGlyphs" textLength="142" x="1392.5" y="1019.9102">CancellationTokenSource</text><line style="stroke: #A80036; stroke-width: 1.5;" x1="1364.5" x2="1536.5" y1="1031" y2="1031"/><line style="stroke: #A80036; stroke-width: 1.5;" x1="1364.5" x2="1536.5" y1="1039" y2="1039"/><!--class TaskScheduler--><rect fill="#FEFECE" filter="url(#fy65clgvnrwlu)" height="48" id="TaskScheduler" style="stroke: #A80036; stroke-width: 1.5;" width="115" x="1743" y="999"/><ellipse cx="1758" cy="1015" fill="#ADD1B2" rx="11" ry="11" style="stroke: #A80036; stroke-width: 1.0;"/><path d="M1760.7656,1010.875 Q1760.9219,1010.6563 1761.1094,1010.5469 Q1761.2969,1010.4375 1761.5156,1010.4375 Q1761.8906,1010.4375 1762.125,1010.6953 Q1762.3594,1010.9531 1762.3594,1011.5625 L1762.3594,1013.0156 Q1762.3594,1013.625 1762.125,1013.8906 Q1761.8906,1014.1563 1761.5156,1014.1563 Q1761.1719,1014.1563 1760.9688,1013.9531 Q1760.7656,1013.7656 1760.6563,1013.25 Q1760.6094,1012.8906 1760.4219,1012.7031 Q1760.0938,1012.3281 1759.4844,1012.1094 Q1758.875,1011.8906 1758.25,1011.8906 Q1757.4844,1011.8906 1756.8516,1012.2188 Q1756.2188,1012.5469 1755.7266,1013.2969 Q1755.2344,1014.0469 1755.2344,1015.0781 L1755.2344,1016.1719 Q1755.2344,1017.4063 1756.125,1018.2266 Q1757.0156,1019.0469 1758.6094,1019.0469 Q1759.5469,1019.0469 1760.2031,1018.7969 Q1760.5938,1018.6406 1761.0156,1018.2031 Q1761.2813,1017.9375 1761.4297,1017.8594 Q1761.5781,1017.7813 1761.7813,1017.7813 Q1762.1094,1017.7813 1762.3672,1018.0391 Q1762.625,1018.2969 1762.625,1018.6406 Q1762.625,1018.9844 1762.2813,1019.3906 Q1761.7813,1019.9688 1760.9844,1020.2969 Q1759.9063,1020.75 1758.6094,1020.75 Q1757.0938,1020.75 1755.8906,1020.125 Q1754.9063,1019.625 1754.2188,1018.5547 Q1753.5313,1017.4844 1753.5313,1016.2031 L1753.5313,1015.0469 Q1753.5313,1013.7188 1754.1484,1012.5703 Q1754.7656,1011.4219 1755.8594,1010.8047 Q1756.9531,1010.1875 1758.1875,1010.1875 Q1758.9219,1010.1875 1759.5703,1010.3516 Q1760.2188,1010.5156 1760.7656,1010.875 Z "/><text fill="#000000" font-family="sans-serif" font-size="12" lengthAdjust="spacingAndGlyphs" textLength="83" x="1772" y="1019.9102">TaskScheduler</text><line style="stroke: #A80036; stroke-width: 1.5;" x1="1744" x2="1857" y1="1031" y2="1031"/><line style="stroke: #A80036; stroke-width: 1.5;" x1="1744" x2="1857" y1="1039" y2="1039"/><!--class IEvent--><rect fill="#FEFECE" filter="url(#fy65clgvnrwlu)" height="75.6719" id="IEvent" style="stroke: #A80036; stroke-width: 1.5;" width="189" x="957" y="39.5"/><ellipse cx="1029.75" cy="55.5" fill="#B4A7E5" rx="11" ry="11" style="stroke: #A80036; stroke-width: 1.0;"/><path d="M1030.7031,52.1406 L1030.7031,58.7969 L1032.4219,58.7969 Q1033.0313,58.7969 1033.2969,59.0313 Q1033.5625,59.2656 1033.5625,59.6563 Q1033.5625,60.0313 1033.2969,60.2656 Q1033.0313,60.5 1032.4219,60.5 L1027.2813,60.5 Q1026.6719,60.5 1026.4063,60.2656 Q1026.1406,60.0313 1026.1406,59.6406 Q1026.1406,59.2656 1026.4063,59.0313 Q1026.6719,58.7969 1027.2813,58.7969 L1029,58.7969 L1029,52.1406 L1027.2813,52.1406 Q1026.6719,52.1406 1026.4063,51.9063 Q1026.1406,51.6719 1026.1406,51.2813 Q1026.1406,50.9063 1026.4063,50.6719 Q1026.6719,50.4375 1027.2813,50.4375 L1032.4219,50.4375 Q1033.0313,50.4375 1033.2969,50.6719 Q1033.5625,50.9063 1033.5625,51.2813 Q1033.5625,51.6719 1033.2969,51.9063 Q1033.0313,52.1406 1032.4219,52.1406 L1030.7031,52.1406 Z "/><text fill="#000000" font-family="sans-serif" font-size="12" font-style="italic" lengthAdjust="spacingAndGlyphs" textLength="35" x="1050.25" y="60.4102">IEvent</text><line style="stroke: #A80036; stroke-width: 1.5;" x1="958" x2="1145" y1="71.5" y2="71.5"/><text fill="#000000" font-family="sans-serif" font-size="11" lengthAdjust="spacingAndGlyphs" textLength="139" x="963" y="86.9189">IgnoreThis : bool «get» «set»</text><text fill="#000000" font-family="sans-serif" font-size="11" lengthAdjust="spacingAndGlyphs" textLength="177" x="963" y="100.7549">IsSystemMessage : bool «get» «set»</text><line style="stroke: #A80036; stroke-width: 1.5;" x1="958" x2="1145" y1="107.1719" y2="107.1719"/><!--class EventHelpers--><rect fill="#FEFECE" filter="url(#fy65clgvnrwlu)" height="139.2031" id="EventHelpers" style="stroke: #A80036; stroke-width: 1.5;" width="478" x="1181.5" y="8"/><ellipse cx="1379.25" cy="28.0938" fill="#ADD1B2" rx="11" ry="11" style="stroke: #A80036; stroke-width: 1.0;"/><path d="M1382.0156,23.9688 Q1382.1719,23.75 1382.3594,23.6406 Q1382.5469,23.5313 1382.7656,23.5313 Q1383.1406,23.5313 1383.375,23.7891 Q1383.6094,24.0469 1383.6094,24.6563 L1383.6094,26.1094 Q1383.6094,26.7188 1383.375,26.9844 Q1383.1406,27.25 1382.7656,27.25 Q1382.4219,27.25 1382.2188,27.0469 Q1382.0156,26.8594 1381.9063,26.3438 Q1381.8594,25.9844 1381.6719,25.7969 Q1381.3438,25.4219 1380.7344,25.2031 Q1380.125,24.9844 1379.5,24.9844 Q1378.7344,24.9844 1378.1016,25.3125 Q1377.4688,25.6406 1376.9766,26.3906 Q1376.4844,27.1406 1376.4844,28.1719 L1376.4844,29.2656 Q1376.4844,30.5 1377.375,31.3203 Q1378.2656,32.1406 1379.8594,32.1406 Q1380.7969,32.1406 1381.4531,31.8906 Q1381.8438,31.7344 1382.2656,31.2969 Q1382.5313,31.0313 1382.6797,30.9531 Q1382.8281,30.875 1383.0313,30.875 Q1383.3594,30.875 1383.6172,31.1328 Q1383.875,31.3906 1383.875,31.7344 Q1383.875,32.0781 1383.5313,32.4844 Q1383.0313,33.0625 1382.2344,33.3906 Q1381.1563,33.8438 1379.8594,33.8438 Q1378.3438,33.8438 1377.1406,33.2188 Q1376.1563,32.7188 1375.4688,31.6484 Q1374.7813,30.5781 1374.7813,29.2969 L1374.7813,28.1406 Q1374.7813,26.8125 1375.3984,25.6641 Q1376.0156,24.5156 1377.1094,23.8984 Q1378.2031,23.2813 1379.4375,23.2813 Q1380.1719,23.2813 1380.8203,23.4453 Q1381.4688,23.6094 1382.0156,23.9688 Z "/><text fill="#000000" font-family="sans-serif" font-size="12" font-style="italic" lengthAdjust="spacingAndGlyphs" textLength="42" x="1415.75" y="25.457">«static»</text><text fill="#000000" font-family="sans-serif" font-size="12" lengthAdjust="spacingAndGlyphs" textLength="74" x="1399.75" y="40.5508">EventHelpers</text><line style="stroke: #A80036; stroke-width: 1.5;" x1="1182.5" x2="1658.5" y1="48.1875" y2="48.1875"/><line style="stroke: #A80036; stroke-width: 1.5;" x1="1182.5" x2="1658.5" y1="56.1875" y2="56.1875"/><ellipse cx="1192.5" cy="68.6055" fill="#84BE84" rx="3" ry="3" style="stroke: #038048; stroke-width: 1.0;"/><text fill="#000000" font-family="sans-serif" font-size="11" lengthAdjust="spacingAndGlyphs" text-decoration="underline" textLength="385" x="1201.5" y="71.6064">GetPlayer(evnt:IEvent, GetPlayerFunc:Func&lt;VersaCommsID, TPlayer&gt;) : TPlayer</text><line style="stroke: #000000; stroke-width: 1.0;" x1="1201.5" x2="1586.5" y1="73.6064" y2="73.6064"/><ellipse cx="1192.5" cy="82.4414" fill="#84BE84" rx="3" ry="3" style="stroke: #038048; stroke-width: 1.0;"/><text fill="#000000" font-family="sans-serif" font-size="11" lengthAdjust="spacingAndGlyphs" text-decoration="underline" textLength="200" x="1201.5" y="85.4424">GetPlayerID(evnt:IEvent) : VersaCommsID</text><line style="stroke: #000000; stroke-width: 1.0;" x1="1201.5" x2="1401.5" y1="87.4424" y2="87.4424"/><ellipse cx="1192.5" cy="96.2773" fill="#84BE84" rx="3" ry="3" style="stroke: #038048; stroke-width: 1.0;"/><text fill="#000000" font-family="sans-serif" font-size="11" lengthAdjust="spacingAndGlyphs" text-decoration="underline" textLength="367" x="1201.5" y="99.2783">GetEntity(evnt:IEvent, getEntityFunc:Func&lt;VersaCommsID, TEntity&gt;) : TEntity</text><line style="stroke: #000000; stroke-width: 1.0;" x1="1201.5" x2="1568.5" y1="101.2783" y2="101.2783"/><ellipse cx="1192.5" cy="110.1133" fill="#84BE84" rx="3" ry="3" style="stroke: #038048; stroke-width: 1.0;"/><text fill="#000000" font-family="sans-serif" font-size="11" lengthAdjust="spacingAndGlyphs" text-decoration="underline" textLength="196" x="1201.5" y="113.1143">GetEntityID(evnt:IEvent) : VersaCommsID</text><line style="stroke: #000000; stroke-width: 1.0;" x1="1201.5" x2="1397.5" y1="115.1143" y2="115.1143"/><ellipse cx="1192.5" cy="123.9492" fill="#84BE84" rx="3" ry="3" style="stroke: #038048; stroke-width: 1.0;"/><text fill="#000000" font-family="sans-serif" font-size="11" lengthAdjust="spacingAndGlyphs" text-decoration="underline" textLength="452" x="1201.5" y="126.9502">GetScenario(evnt:IEvent, getScenarioFunction:Func&lt;VersaCommsID, TScenario&gt;) : TScenario</text><line style="stroke: #000000; stroke-width: 1.0;" x1="1201.5" x2="1653.5" y1="128.9502" y2="128.9502"/><ellipse cx="1192.5" cy="137.7852" fill="#84BE84" rx="3" ry="3" style="stroke: #038048; stroke-width: 1.0;"/><text fill="#000000" font-family="sans-serif" font-size="11" lengthAdjust="spacingAndGlyphs" text-decoration="underline" textLength="213" x="1201.5" y="140.7861">GetScenarioID(evnt:IEvent) : VersaCommsID</text><line style="stroke: #000000; stroke-width: 1.0;" x1="1201.5" x2="1414.5" y1="142.7861" y2="142.7861"/><!--class UnionType`2--><rect fill="#FEFECE" filter="url(#fy65clgvnrwlu)" height="48" id="UnionType`2" style="stroke: #A80036; stroke-width: 1.5;" width="137" x="857" y="561.5"/><ellipse cx="872" cy="577.5" fill="#ADD1B2" rx="11" ry="11" style="stroke: #A80036; stroke-width: 1.0;"/><path d="M874.7656,573.375 Q874.9219,573.1563 875.1094,573.0469 Q875.2969,572.9375 875.5156,572.9375 Q875.8906,572.9375 876.125,573.1953 Q876.3594,573.4531 876.3594,574.0625 L876.3594,575.5156 Q876.3594,576.125 876.125,576.3906 Q875.8906,576.6563 875.5156,576.6563 Q875.1719,576.6563 874.9688,576.4531 Q874.7656,576.2656 874.6563,575.75 Q874.6094,575.3906 874.4219,575.2031 Q874.0938,574.8281 873.4844,574.6094 Q872.875,574.3906 872.25,574.3906 Q871.4844,574.3906 870.8516,574.7188 Q870.2188,575.0469 869.7266,575.7969 Q869.2344,576.5469 869.2344,577.5781 L869.2344,578.6719 Q869.2344,579.9063 870.125,580.7266 Q871.0156,581.5469 872.6094,581.5469 Q873.5469,581.5469 874.2031,581.2969 Q874.5938,581.1406 875.0156,580.7031 Q875.2813,580.4375 875.4297,580.3594 Q875.5781,580.2813 875.7813,580.2813 Q876.1094,580.2813 876.3672,580.5391 Q876.625,580.7969 876.625,581.1406 Q876.625,581.4844 876.2813,581.8906 Q875.7813,582.4688 874.9844,582.7969 Q873.9063,583.25 872.6094,583.25 Q871.0938,583.25 869.8906,582.625 Q868.9063,582.125 868.2188,581.0547 Q867.5313,579.9844 867.5313,578.7031 L867.5313,577.5469 Q867.5313,576.2188 868.1484,575.0703 Q868.7656,573.9219 869.8594,573.3047 Q870.9531,572.6875 872.1875,572.6875 Q872.9219,572.6875 873.5703,572.8516 Q874.2188,573.0156 874.7656,573.375 Z "/><text fill="#000000" font-family="sans-serif" font-size="12" lengthAdjust="spacingAndGlyphs" textLength="70" x="886" y="582.4102">UnionType`2</text><rect fill="#FFFFFF" height="17.0938" style="stroke: #000000; stroke-width: 1.0; stroke-dasharray: 2.0,2.0;" width="33" x="964" y="558.5"/><text fill="#000000" font-family="sans-serif" font-size="12" font-style="italic" lengthAdjust="spacingAndGlyphs" textLength="31" x="965" y="571.957">T1,T2</text><line style="stroke: #A80036; stroke-width: 1.5;" x1="858" x2="993" y1="593.5" y2="593.5"/><line style="stroke: #A80036; stroke-width: 1.5;" x1="858" x2="993" y1="601.5" y2="601.5"/><!--class IList`1--><rect fill="#FEFECE" filter="url(#fy65clgvnrwlu)" height="48" id="IList`1" style="stroke: #A80036; stroke-width: 1.5;" width="77" x="870" y="391"/><ellipse cx="885" cy="407" fill="#ADD1B2" rx="11" ry="11" style="stroke: #A80036; stroke-width: 1.0;"/><path d="M887.7656,402.875 Q887.9219,402.6563 888.1094,402.5469 Q888.2969,402.4375 888.5156,402.4375 Q888.8906,402.4375 889.125,402.6953 Q889.3594,402.9531 889.3594,403.5625 L889.3594,405.0156 Q889.3594,405.625 889.125,405.8906 Q888.8906,406.1563 888.5156,406.1563 Q888.1719,406.1563 887.9688,405.9531 Q887.7656,405.7656 887.6563,405.25 Q887.6094,404.8906 887.4219,404.7031 Q887.0938,404.3281 886.4844,404.1094 Q885.875,403.8906 885.25,403.8906 Q884.4844,403.8906 883.8516,404.2188 Q883.2188,404.5469 882.7266,405.2969 Q882.2344,406.0469 882.2344,407.0781 L882.2344,408.1719 Q882.2344,409.4063 883.125,410.2266 Q884.0156,411.0469 885.6094,411.0469 Q886.5469,411.0469 887.2031,410.7969 Q887.5938,410.6406 888.0156,410.2031 Q888.2813,409.9375 888.4297,409.8594 Q888.5781,409.7813 888.7813,409.7813 Q889.1094,409.7813 889.3672,410.0391 Q889.625,410.2969 889.625,410.6406 Q889.625,410.9844 889.2813,411.3906 Q888.7813,411.9688 887.9844,412.2969 Q886.9063,412.75 885.6094,412.75 Q884.0938,412.75 882.8906,412.125 Q881.9063,411.625 881.2188,410.5547 Q880.5313,409.4844 880.5313,408.2031 L880.5313,407.0469 Q880.5313,405.7188 881.1484,404.5703 Q881.7656,403.4219 882.8594,402.8047 Q883.9531,402.1875 885.1875,402.1875 Q885.9219,402.1875 886.5703,402.3516 Q887.2188,402.5156 887.7656,402.875 Z "/><text fill="#000000" font-family="sans-serif" font-size="12" lengthAdjust="spacingAndGlyphs" textLength="34" x="899" y="411.9102">IList`1</text><rect fill="#FFFFFF" height="17.0938" style="stroke: #000000; stroke-width: 1.0; stroke-dasharray: 2.0,2.0;" width="9" x="941" y="388"/><text fill="#000000" font-family="sans-serif" font-size="12" font-style="italic" lengthAdjust="spacingAndGlyphs" textLength="7" x="942" y="401.457">T</text><line style="stroke: #A80036; stroke-width: 1.5;" x1="871" x2="946" y1="423" y2="423"/><line style="stroke: #A80036; stroke-width: 1.5;" x1="871" x2="946" y1="431" y2="431"/><!--class IServiceProvider--><rect fill="#FEFECE" filter="url(#fy65clgvnrwlu)" height="48" id="IServiceProvider" style="stroke: #A80036; stroke-width: 1.5;" width="120" x="1071.5" y="561.5"/><ellipse cx="1086.5" cy="577.5" fill="#ADD1B2" rx="11" ry="11" style="stroke: #A80036; stroke-width: 1.0;"/><path d="M1089.2656,573.375 Q1089.4219,573.1563 1089.6094,573.0469 Q1089.7969,572.9375 1090.0156,572.9375 Q1090.3906,572.9375 1090.625,573.1953 Q1090.8594,573.4531 1090.8594,574.0625 L1090.8594,575.5156 Q1090.8594,576.125 1090.625,576.3906 Q1090.3906,576.6563 1090.0156,576.6563 Q1089.6719,576.6563 1089.4688,576.4531 Q1089.2656,576.2656 1089.1563,575.75 Q1089.1094,575.3906 1088.9219,575.2031 Q1088.5938,574.8281 1087.9844,574.6094 Q1087.375,574.3906 1086.75,574.3906 Q1085.9844,574.3906 1085.3516,574.7188 Q1084.7188,575.0469 1084.2266,575.7969 Q1083.7344,576.5469 1083.7344,577.5781 L1083.7344,578.6719 Q1083.7344,579.9063 1084.625,580.7266 Q1085.5156,581.5469 1087.1094,581.5469 Q1088.0469,581.5469 1088.7031,581.2969 Q1089.0938,581.1406 1089.5156,580.7031 Q1089.7813,580.4375 1089.9297,580.3594 Q1090.0781,580.2813 1090.2813,580.2813 Q1090.6094,580.2813 1090.8672,580.5391 Q1091.125,580.7969 1091.125,581.1406 Q1091.125,581.4844 1090.7813,581.8906 Q1090.2813,582.4688 1089.4844,582.7969 Q1088.4063,583.25 1087.1094,583.25 Q1085.5938,583.25 1084.3906,582.625 Q1083.4063,582.125 1082.7188,581.0547 Q1082.0313,579.9844 1082.0313,578.7031 L1082.0313,577.5469 Q1082.0313,576.2188 1082.6484,575.0703 Q1083.2656,573.9219 1084.3594,573.3047 Q1085.4531,572.6875 1086.6875,572.6875 Q1087.4219,572.6875 1088.0703,572.8516 Q1088.7188,573.0156 1089.2656,573.375 Z "/><text fill="#000000" font-family="sans-serif" font-size="12" lengthAdjust="spacingAndGlyphs" textLength="88" x="1100.5" y="582.4102">IServiceProvider</text><line style="stroke: #A80036; stroke-width: 1.5;" x1="1072.5" x2="1190.5" y1="593.5" y2="593.5"/><line style="stroke: #A80036; stroke-width: 1.5;" x1="1072.5" x2="1190.5" y1="601.5" y2="601.5"/><!--class ICancelable--><rect fill="#FEFECE" filter="url(#fy65clgvnrwlu)" height="48" id="ICancelable" style="stroke: #A80036; stroke-width: 1.5;" width="98" x="498.5" y="391"/><ellipse cx="513.5" cy="407" fill="#ADD1B2" rx="11" ry="11" style="stroke: #A80036; stroke-width: 1.0;"/><path d="M516.2656,402.875 Q516.4219,402.6563 516.6094,402.5469 Q516.7969,402.4375 517.0156,402.4375 Q517.3906,402.4375 517.625,402.6953 Q517.8594,402.9531 517.8594,403.5625 L517.8594,405.0156 Q517.8594,405.625 517.625,405.8906 Q517.3906,406.1563 517.0156,406.1563 Q516.6719,406.1563 516.4688,405.9531 Q516.2656,405.7656 516.1563,405.25 Q516.1094,404.8906 515.9219,404.7031 Q515.5938,404.3281 514.9844,404.1094 Q514.375,403.8906 513.75,403.8906 Q512.9844,403.8906 512.3516,404.2188 Q511.7188,404.5469 511.2266,405.2969 Q510.7344,406.0469 510.7344,407.0781 L510.7344,408.1719 Q510.7344,409.4063 511.625,410.2266 Q512.5156,411.0469 514.1094,411.0469 Q515.0469,411.0469 515.7031,410.7969 Q516.0938,410.6406 516.5156,410.2031 Q516.7813,409.9375 516.9297,409.8594 Q517.0781,409.7813 517.2813,409.7813 Q517.6094,409.7813 517.8672,410.0391 Q518.125,410.2969 518.125,410.6406 Q518.125,410.9844 517.7813,411.3906 Q517.2813,411.9688 516.4844,412.2969 Q515.4063,412.75 514.1094,412.75 Q512.5938,412.75 511.3906,412.125 Q510.4063,411.625 509.7188,410.5547 Q509.0313,409.4844 509.0313,408.2031 L509.0313,407.0469 Q509.0313,405.7188 509.6484,404.5703 Q510.2656,403.4219 511.3594,402.8047 Q512.4531,402.1875 513.6875,402.1875 Q514.4219,402.1875 515.0703,402.3516 Q515.7188,402.5156 516.2656,402.875 Z "/><text fill="#000000" font-family="sans-serif" font-size="12" lengthAdjust="spacingAndGlyphs" textLength="66" x="527.5" y="411.9102">ICancelable</text><line style="stroke: #A80036; stroke-width: 1.5;" x1="499.5" x2="595.5" y1="423" y2="423"/><line style="stroke: #A80036; stroke-width: 1.5;" x1="499.5" x2="595.5" y1="431" y2="431"/><!--class IEventPreProcessor`1--><rect fill="#FEFECE" filter="url(#fy65clgvnrwlu)" height="75.6719" id="IEventPreProcessor`1" style="stroke: #A80036; stroke-width: 1.5;" width="257" x="1674" y="220.5"/><ellipse cx="1732.75" cy="236.5" fill="#B4A7E5" rx="11" ry="11" style="stroke: #A80036; stroke-width: 1.0;"/><path d="M1733.7031,233.1406 L1733.7031,239.7969 L1735.4219,239.7969 Q1736.0313,239.7969 1736.2969,240.0313 Q1736.5625,240.2656 1736.5625,240.6563 Q1736.5625,241.0313 1736.2969,241.2656 Q1736.0313,241.5 1735.4219,241.5 L1730.2813,241.5 Q1729.6719,241.5 1729.4063,241.2656 Q1729.1406,241.0313 1729.1406,240.6406 Q1729.1406,240.2656 1729.4063,240.0313 Q1729.6719,239.7969 1730.2813,239.7969 L1732,239.7969 L1732,233.1406 L1730.2813,233.1406 Q1729.6719,233.1406 1729.4063,232.9063 Q1729.1406,232.6719 1729.1406,232.2813 Q1729.1406,231.9063 1729.4063,231.6719 Q1729.6719,231.4375 1730.2813,231.4375 L1735.4219,231.4375 Q1736.0313,231.4375 1736.2969,231.6719 Q1736.5625,231.9063 1736.5625,232.2813 Q1736.5625,232.6719 1736.2969,232.9063 Q1736.0313,233.1406 1735.4219,233.1406 L1733.7031,233.1406 Z "/><text fill="#000000" font-family="sans-serif" font-size="12" font-style="italic" lengthAdjust="spacingAndGlyphs" textLength="120" x="1753.25" y="241.4102">IEventPreProcessor`1</text><rect fill="#FFFFFF" height="17.0938" style="stroke: #000000; stroke-width: 1.0; stroke-dasharray: 2.0,2.0;" width="9" x="1925" y="217.5"/><text fill="#000000" font-family="sans-serif" font-size="12" font-style="italic" lengthAdjust="spacingAndGlyphs" textLength="7" x="1926" y="230.957">T</text><line style="stroke: #A80036; stroke-width: 1.5;" x1="1675" x2="1930" y1="252.5" y2="252.5"/><line style="stroke: #A80036; stroke-width: 1.5;" x1="1675" x2="1930" y1="260.5" y2="260.5"/><text fill="#000000" font-family="sans-serif" font-size="11" lengthAdjust="spacingAndGlyphs" textLength="245" x="1680" y="275.9189">«new» PreProcessAsync(newEvent:TI) : Task&lt;TI&gt;</text><text fill="#000000" font-family="sans-serif" font-size="11" lengthAdjust="spacingAndGlyphs" textLength="178" x="1680" y="289.7549">«new» PreProcess(newEvent:TI) : TI</text><!--class IEventPreprocessor--><rect fill="#FEFECE" filter="url(#fy65clgvnrwlu)" height="75.6719" id="IEventPreprocessor" style="stroke: #A80036; stroke-width: 1.5;" width="216" x="1694.5" y="39.5"/><ellipse cx="1744.25" cy="55.5" fill="#B4A7E5" rx="11" ry="11" style="stroke: #A80036; stroke-width: 1.0;"/><path d="M1745.2031,52.1406 L1745.2031,58.7969 L1746.9219,58.7969 Q1747.5313,58.7969 1747.7969,59.0313 Q1748.0625,59.2656 1748.0625,59.6563 Q1748.0625,60.0313 1747.7969,60.2656 Q1747.5313,60.5 1746.9219,60.5 L1741.7813,60.5 Q1741.1719,60.5 1740.9063,60.2656 Q1740.6406,60.0313 1740.6406,59.6406 Q1740.6406,59.2656 1740.9063,59.0313 Q1741.1719,58.7969 1741.7813,58.7969 L1743.5,58.7969 L1743.5,52.1406 L1741.7813,52.1406 Q1741.1719,52.1406 1740.9063,51.9063 Q1740.6406,51.6719 1740.6406,51.2813 Q1740.6406,50.9063 1740.9063,50.6719 Q1741.1719,50.4375 1741.7813,50.4375 L1746.9219,50.4375 Q1747.5313,50.4375 1747.7969,50.6719 Q1748.0625,50.9063 1748.0625,51.2813 Q1748.0625,51.6719 1747.7969,51.9063 Q1747.5313,52.1406 1746.9219,52.1406 L1745.2031,52.1406 Z "/><text fill="#000000" font-family="sans-serif" font-size="12" font-style="italic" lengthAdjust="spacingAndGlyphs" textLength="108" x="1764.75" y="60.4102">IEventPreprocessor</text><line style="stroke: #A80036; stroke-width: 1.5;" x1="1695.5" x2="1909.5" y1="71.5" y2="71.5"/><line style="stroke: #A80036; stroke-width: 1.5;" x1="1695.5" x2="1909.5" y1="79.5" y2="79.5"/><text fill="#000000" font-family="sans-serif" font-size="11" lengthAdjust="spacingAndGlyphs" textLength="204" x="1700.5" y="94.9189">PreProcessAsync(newEvent:T) : Task&lt;T&gt;</text><text fill="#000000" font-family="sans-serif" font-size="11" lengthAdjust="spacingAndGlyphs" textLength="137" x="1700.5" y="108.7549">PreProcess(newEvent:T) : T</text><!--class IMessageEvent--><rect fill="#FEFECE" filter="url(#fy65clgvnrwlu)" height="61.8359" id="IMessageEvent" style="stroke: #A80036; stroke-width: 1.5;" width="168" x="669.5" y="227.5"/><ellipse cx="707.9" cy="243.5" fill="#B4A7E5" rx="11" ry="11" style="stroke: #A80036; stroke-width: 1.0;"/><path d="M708.8531,240.1406 L708.8531,246.7969 L710.5719,246.7969 Q711.1813,246.7969 711.4469,247.0313 Q711.7125,247.2656 711.7125,247.6563 Q711.7125,248.0313 711.4469,248.2656 Q711.1813,248.5 710.5719,248.5 L705.4313,248.5 Q704.8219,248.5 704.5563,248.2656 Q704.2906,248.0313 704.2906,247.6406 Q704.2906,247.2656 704.5563,247.0313 Q704.8219,246.7969 705.4313,246.7969 L707.15,246.7969 L707.15,240.1406 L705.4313,240.1406 Q704.8219,240.1406 704.5563,239.9063 Q704.2906,239.6719 704.2906,239.2813 Q704.2906,238.9063 704.5563,238.6719 Q704.8219,238.4375 705.4313,238.4375 L710.5719,238.4375 Q711.1813,238.4375 711.4469,238.6719 Q711.7125,238.9063 711.7125,239.2813 Q711.7125,239.6719 711.4469,239.9063 Q711.1813,240.1406 710.5719,240.1406 L708.8531,240.1406 Z "/><text fill="#000000" font-family="sans-serif" font-size="12" font-style="italic" lengthAdjust="spacingAndGlyphs" textLength="84" x="727.1" y="248.4102">IMessageEvent</text><line style="stroke: #A80036; stroke-width: 1.5;" x1="670.5" x2="836.5" y1="259.5" y2="259.5"/><text fill="#000000" font-family="sans-serif" font-size="11" lengthAdjust="spacingAndGlyphs" textLength="156" x="675.5" y="274.9189">FullMessage : string «get» «set»</text><line style="stroke: #A80036; stroke-width: 1.5;" x1="670.5" x2="836.5" y1="281.3359" y2="281.3359"/><!--class MessageEvent--><rect fill="#FEFECE" filter="url(#fy65clgvnrwlu)" height="89.5078" id="MessageEvent" style="stroke: #A80036; stroke-width: 1.5;" width="203" x="632" y="370"/><ellipse cx="688.75" cy="386" fill="#ADD1B2" rx="11" ry="11" style="stroke: #A80036; stroke-width: 1.0;"/><path d="M691.5156,381.875 Q691.6719,381.6563 691.8594,381.5469 Q692.0469,381.4375 692.2656,381.4375 Q692.6406,381.4375 692.875,381.6953 Q693.1094,381.9531 693.1094,382.5625 L693.1094,384.0156 Q693.1094,384.625 692.875,384.8906 Q692.6406,385.1563 692.2656,385.1563 Q691.9219,385.1563 691.7188,384.9531 Q691.5156,384.7656 691.4063,384.25 Q691.3594,383.8906 691.1719,383.7031 Q690.8438,383.3281 690.2344,383.1094 Q689.625,382.8906 689,382.8906 Q688.2344,382.8906 687.6016,383.2188 Q686.9688,383.5469 686.4766,384.2969 Q685.9844,385.0469 685.9844,386.0781 L685.9844,387.1719 Q685.9844,388.4063 686.875,389.2266 Q687.7656,390.0469 689.3594,390.0469 Q690.2969,390.0469 690.9531,389.7969 Q691.3438,389.6406 691.7656,389.2031 Q692.0313,388.9375 692.1797,388.8594 Q692.3281,388.7813 692.5313,388.7813 Q692.8594,388.7813 693.1172,389.0391 Q693.375,389.2969 693.375,389.6406 Q693.375,389.9844 693.0313,390.3906 Q692.5313,390.9688 691.7344,391.2969 Q690.6563,391.75 689.3594,391.75 Q687.8438,391.75 686.6406,391.125 Q685.6563,390.625 684.9688,389.5547 Q684.2813,388.4844 684.2813,387.2031 L684.2813,386.0469 Q684.2813,384.7188 684.8984,383.5703 Q685.5156,382.4219 686.6094,381.8047 Q687.7031,381.1875 688.9375,381.1875 Q689.6719,381.1875 690.3203,381.3516 Q690.9688,381.5156 691.5156,381.875 Z "/><text fill="#000000" font-family="sans-serif" font-size="12" lengthAdjust="spacingAndGlyphs" textLength="81" x="709.25" y="390.9102">MessageEvent</text><line style="stroke: #A80036; stroke-width: 1.5;" x1="633" x2="834" y1="402" y2="402"/><ellipse cx="643" cy="414.418" fill="none" rx="3" ry="3" style="stroke: #038048; stroke-width: 1.0;"/><text fill="#000000" font-family="sans-serif" font-size="11" lengthAdjust="spacingAndGlyphs" textLength="139" x="652" y="417.4189">IgnoreThis : bool «get» «set»</text><ellipse cx="643" cy="428.2539" fill="none" rx="3" ry="3" style="stroke: #038048; stroke-width: 1.0;"/><text fill="#000000" font-family="sans-serif" font-size="11" lengthAdjust="spacingAndGlyphs" textLength="177" x="652" y="431.2549">IsSystemMessage : bool «get» «set»</text><ellipse cx="643" cy="442.0898" fill="none" rx="3" ry="3" style="stroke: #038048; stroke-width: 1.0;"/><text fill="#000000" font-family="sans-serif" font-size="11" lengthAdjust="spacingAndGlyphs" textLength="156" x="652" y="445.0908">FullMessage : string «get» «set»</text><line style="stroke: #A80036; stroke-width: 1.5;" x1="633" x2="834" y1="451.5078" y2="451.5078"/><!--link IDisposable to AsyncManualResetEvent--><path d="M89.5,121.917 C89.5,147.495 89.5,179.978 89.5,206.737 " fill="none" id="IDisposable-AsyncManualResetEvent" style="stroke: #A80036; stroke-width: 1.0;"/><polygon fill="none" points="82.5001,121.535,89.5,101.535,96.5001,121.535,82.5001,121.535" style="stroke: #A80036; stroke-width: 1.0;"/><!--link AsyncManualResetEvent to TaskCompletionSource`1--><path d="M186.402,258.5 C189.391,258.5 192.38,258.5 195.37,258.5 " fill="none" id="AsyncManualResetEvent-TaskCompletionSource`1" style="stroke: #A80036; stroke-width: 1.0;"/><polygon fill="#A80036" points="208.476,258.5,199.476,254.5,203.476,258.5,199.476,262.5,208.476,258.5" style="stroke: #A80036; stroke-width: 1.0;"/><line style="stroke: #A80036; stroke-width: 1.0;" x1="203.476" x2="195.476" y1="258.5" y2="258.5"/><polygon fill="#FFFFFF" points="173.158,258.5,179.158,262.5,185.158,258.5,179.158,254.5,173.158,258.5" style="stroke: #A80036; stroke-width: 1.0;"/><text fill="#000000" font-family="sans-serif" font-size="13" lengthAdjust="spacingAndGlyphs" textLength="76" x="125.4259" y="243.0016">m_tcs&lt;bool&gt;</text><!--link IEventPipe to EventPipe--><path d="M547.5,671.366 C547.5,684.215 547.5,697.641 547.5,710.971 " fill="none" id="IEventPipe-EventPipe" style="stroke: #A80036; stroke-width: 1.0;"/><polygon fill="none" points="540.5,671.084,547.5,651.084,554.5,671.084,540.5,671.084" style="stroke: #A80036; stroke-width: 1.0;"/><!--link EventPipe to TaskPoolScheduler--><path d="M534.887,939.162 C535.254,959.4215 536.364,978.7947 538.217,993.705 " fill="none" id="EventPipe-TaskPoolScheduler" style="stroke: #A80036; stroke-width: 1.0;"/><polygon fill="#A80036" points="538.933,998.9897,541.6885,989.5341,538.2617,994.035,533.7609,990.6082,538.933,998.9897" style="stroke: #A80036; stroke-width: 1.0;"/><text fill="#000000" font-family="sans-serif" font-size="13" lengthAdjust="spacingAndGlyphs" textLength="78" x="448.744" y="988.3272">_allScheduler</text><!--link EventPipe to TaskPoolScheduler--><path d="M560.855,939.162 C560.466,959.4215 559.291,978.7947 557.329,993.705 " fill="none" id="EventPipe-TaskPoolScheduler" style="stroke: #A80036; stroke-width: 1.0;"/><polygon fill="#A80036" points="556.571,998.9897,561.8085,990.6489,557.281,994.0404,553.8896,989.5129,556.571,998.9897" style="stroke: #A80036; stroke-width: 1.0;"/><text fill="#000000" font-family="sans-serif" font-size="13" lengthAdjust="spacingAndGlyphs" textLength="101" x="623.0171" y="988.1751">_readerScheduler</text><!--link EventPipe to Subject`1--><path d="M420.582,939.162 C405.763,959.5992 393.959,979.1345 388.036,994.0963 " fill="none" id="EventPipe-Subject`1" style="stroke: #A80036; stroke-width: 1.0;"/><polygon fill="#A80036" points="386.257,998.9897,393.0919,991.8985,387.9657,994.2907,385.5735,989.1646,386.257,998.9897" style="stroke: #A80036; stroke-width: 1.0;"/><text fill="#000000" font-family="sans-serif" font-size="13" lengthAdjust="spacingAndGlyphs" textLength="115" x="254.6935" y="988.1398">_allSubject&lt;IEvent&gt;</text><!--link EventPipe to Subject`1--><path d="M446.551,939.162 C430.833,959.7769 416.6,979.4741 406.793,994.4856 " fill="none" id="EventPipe-Subject`1" style="stroke: #A80036; stroke-width: 1.0;"/><polygon fill="#A80036" points="403.895,998.9897,412.1291,993.586,406.6008,994.7851,405.4017,989.2568,403.895,998.9897" style="stroke: #A80036; stroke-width: 1.0;"/><text fill="#000000" font-family="sans-serif" font-size="13" lengthAdjust="spacingAndGlyphs" textLength="376" x="451.561" y="988.1417">_incomingEventSubject&lt;(IEvent @event, bool doPreProcessing)&gt;</text><!--link EventPipe to Subject`1--><path d="M472.519,939.162 C455.747,960.1324 438.873,980.1531 424.995,995.2578 " fill="none" id="EventPipe-Subject`1" style="stroke: #A80036; stroke-width: 1.0;"/><polygon fill="#A80036" points="421.533,998.9897,430.5864,995.112,424.9335,995.3241,424.7214,989.6712,421.533,998.9897" style="stroke: #A80036; stroke-width: 1.0;"/><text fill="#000000" font-family="sans-serif" font-size="13" lengthAdjust="spacingAndGlyphs" textLength="127" x="441.3322" y="988.0378">_readSubject&lt;IEvent&gt;</text><!--link EventPipe to Subject`1--><path d="M498.488,939.162 C480.783,960.3101 461.31,980.4924 443.245,995.6408 " fill="none" id="EventPipe-Subject`1" style="stroke: #A80036; stroke-width: 1.0;"/><polygon fill="#A80036" points="439.172,998.9897,448.6642,996.3634,443.0341,995.8141,443.5833,990.184,439.172,998.9897" style="stroke: #A80036; stroke-width: 1.0;"/><text fill="#000000" font-family="sans-serif" font-size="13" lengthAdjust="spacingAndGlyphs" textLength="129" x="305.6446" y="988.1398">_writeSubject&lt;IEvent&gt;</text><!--link EventPipe to IScheduler--><path d="M634.681,939.162 C650.7,959.9547 665.999,979.8137 677.601,994.8728 " fill="none" id="EventPipe-IScheduler" style="stroke: #A80036; stroke-width: 1.0;"/><polygon fill="#A80036" points="680.773,998.9897,678.4479,989.4192,677.721,995.0292,672.1111,994.3024,680.773,998.9897" style="stroke: #A80036; stroke-width: 1.0;"/><text fill="#000000" font-family="sans-serif" font-size="13" lengthAdjust="spacingAndGlyphs" textLength="95" x="725.7792" y="988.1498">_initialScheduler</text><!--link EventPipe to SynchronizationContext--><path d="M727.059,939.162 C761.037,960.5766 793.445,981.001 817.58,996.2112 " fill="none" id="EventPipe-SynchronizationContext" style="stroke: #A80036; stroke-width: 1.0;"/><polygon fill="#A80036" points="821.989,998.9897,816.5075,990.8072,817.7589,996.3239,812.2422,997.5754,821.989,998.9897" style="stroke: #A80036; stroke-width: 1.0;"/><text fill="#000000" font-family="sans-serif" font-size="13" lengthAdjust="spacingAndGlyphs" textLength="80" x="822.8831" y="988.3272">_syncContext</text><!--link EventPipe to ConcurrentExclusiveSchedulerPair--><path d="M746.51,932.192 C752.201,934.557 757.872,936.833 763.5,939 C829.595,964.4468 906.309,984.606 968.165,998.6821 " fill="none" id="EventPipe-ConcurrentExclusiveSchedulerPair" style="stroke: #A80036; stroke-width: 1.0;"/><polygon fill="#A80036" points="973.346,999.8548,965.45,993.9681,968.4692,998.7519,963.6854,1001.771,973.346,999.8548" style="stroke: #A80036; stroke-width: 1.0;"/><text fill="#000000" font-family="sans-serif" font-size="13" lengthAdjust="spacingAndGlyphs" textLength="76" x="951.857" y="988.2527">_tpschedPair</text><!--link EventPipe to TaskFactory--><path d="M746.798,933.327 C752.38,935.341 757.954,937.239 763.5,939 C955.391,999.9222 1016.55,952.7563 1212.5,999 C1216.72,999.9949 1221.04,1001.1513 1225.36,1002.406 " fill="none" id="EventPipe-TaskFactory" style="stroke: #A80036; stroke-width: 1.0;"/><polygon fill="#A80036" points="1230.43,1003.9203,1222.9484,997.5152,1225.6385,1002.4915,1220.6622,1005.1816,1230.43,1003.9203" style="stroke: #A80036; stroke-width: 1.0;"/><text fill="#000000" font-family="sans-serif" font-size="13" lengthAdjust="spacingAndGlyphs" textLength="58" x="1195.5463" y="988.1048">exFactory</text><!--link EventPipe to ConcurrentDictionary`2--><path d="M719.128,705.058 C739.284,695.292 760.125,686.919 781,681 C819.483,670.088 834.371,664.928 871,681 C921.311,703.075 960.933,754.725 983.294,789.775 " fill="none" id="EventPipe-ConcurrentDictionary`2" style="stroke: #A80036; stroke-width: 1.0;"/><polygon fill="#A80036" points="990.206,800.958,988.8763,791.1993,987.577,796.7049,982.0714,795.4057,990.206,800.958" style="stroke: #A80036; stroke-width: 1.0;"/><line style="stroke: #A80036; stroke-width: 1.0;" x1="987.577" x2="983.3715" y1="796.7049" y2="789.8995"/><polygon fill="#FFFFFF" points="707.344,710.962,714.5001,711.8508,718.0729,705.587,710.9168,704.6982,707.344,710.962" style="stroke: #A80036; stroke-width: 1.0;"/><text fill="#000000" font-family="sans-serif" font-size="13" lengthAdjust="spacingAndGlyphs" textLength="325" x="1028.44" y="790.2874">_preProcessing&lt;IObserver&lt;IEvent, IEvent&gt;,IDisposable&gt;</text><!--link EventPipe to AsyncLock--><path d="M759.92,825 C762.701,825 765.483,825 768.265,825 " fill="none" id="EventPipe-AsyncLock" style="stroke: #A80036; stroke-width: 1.0;"/><polygon fill="#A80036" points="781.283,825,772.283,821,776.283,825,772.283,829,781.283,825" style="stroke: #A80036; stroke-width: 1.0;"/><line style="stroke: #A80036; stroke-width: 1.0;" x1="776.283" x2="768.283" y1="825" y2="825"/><polygon fill="#FFFFFF" points="746.669,825,752.669,829,758.669,825,752.669,821,746.669,825" style="stroke: #A80036; stroke-width: 1.0;"/><text fill="#000000" font-family="sans-serif" font-size="13" lengthAdjust="spacingAndGlyphs" textLength="96" x="685.8393" y="790.2509">ExclusionLocker</text><!--link EventPipe to CancellationToken--><path d="M746.669,933.754 C752.289,935.643 757.906,937.398 763.5,939 C1102.45,1036.0442 1206.93,939.867 1554.5,999 C1558.77,999.7266 1563.14,1000.5699 1567.53,1001.4955 " fill="none" id="EventPipe-CancellationToken" style="stroke: #A80036; stroke-width: 1.0;"/><polygon fill="#A80036" points="1572.69,1002.6179,1564.7394,996.8051,1567.8031,1001.5605,1563.0477,1004.6242,1572.69,1002.6179" style="stroke: #A80036; stroke-width: 1.0;"/><text fill="#000000" font-family="sans-serif" font-size="13" lengthAdjust="spacingAndGlyphs" textLength="63" x="1528.5704" y="988.2744">MainToken</text><!--link EventPipe to IObservable`1--><path d="M350.633,939.162 C319.486,960.3101 291.462,980.4924 272.706,995.6408 " fill="none" id="EventPipe-IObservable`1" style="stroke: #A80036; stroke-width: 1.0;"/><polygon fill="#A80036" points="268.612,998.9897,278.1109,996.3875,272.4822,995.824,273.0457,990.1953,268.612,998.9897" style="stroke: #A80036; stroke-width: 1.0;"/><text fill="#000000" font-family="sans-serif" font-size="13" lengthAdjust="spacingAndGlyphs" textLength="161" x="91.3688" y="988.3272">ObserveConcurrent&lt;IEvent&gt;</text><!--link EventPipe to IObservable`1--><path d="M376.602,939.162 C344.262,960.5766 313.417,981.001 290.446,996.2112 " fill="none" id="EventPipe-IObservable`1" style="stroke: #A80036; stroke-width: 1.0;"/><polygon fill="#A80036" points="286.25,998.9897,295.9625,997.3567,290.4191,996.2295,291.5463,990.6861,286.25,998.9897" style="stroke: #A80036; stroke-width: 1.0;"/><text fill="#000000" font-family="sans-serif" font-size="13" lengthAdjust="spacingAndGlyphs" textLength="124" x="233.6439" y="987.9042">ObserveFirst&lt;IEvent&gt;</text><!--link EventPipe to IObservable`1--><path d="M402.57,939.162 C369.293,960.6655 335.801,981.1705 308.553,996.4003 " fill="none" id="EventPipe-IObservable`1" style="stroke: #A80036; stroke-width: 1.0;"/><polygon fill="#A80036" points="303.889,998.9897,313.6992,998.1183,308.2605,996.5627,309.816,991.1239,303.889,998.9897" style="stroke: #A80036; stroke-width: 1.0;"/><text fill="#000000" font-family="sans-serif" font-size="13" lengthAdjust="spacingAndGlyphs" textLength="174" x="77.1072" y="988.3372">ObserveSynchronous&lt;IEvent&gt;</text><!--link EventPipe to CancellationTokenSource--><path d="M746.728,933.551 C752.331,935.5 757.928,937.323 763.5,939 C1012.5,1013.9467 1088.75,957.7803 1345.5,999 C1349.67,999.6697 1353.93,1000.4009 1358.22,1001.1774 " fill="none" id="EventPipe-CancellationTokenSource" style="stroke: #A80036; stroke-width: 1.0;"/><polygon fill="#A80036" points="1363.27,1002.1088,1355.1529,996.531,1358.3543,1001.1948,1353.6904,1004.3961,1363.27,1002.1088" style="stroke: #A80036; stroke-width: 1.0;"/><text fill="#000000" font-family="sans-serif" font-size="13" lengthAdjust="spacingAndGlyphs" textLength="76" x="1304.7894" y="988.1096">TokenSource</text><!--link EventPipe to TaskScheduler--><path d="M746.64,933.855 C752.269,935.714 757.895,937.436 763.5,939 C1176.12,1054.1481 1304.03,922.338 1725.5,999 C1729.54,999.7358 1733.68,1000.6178 1737.82,1001.6014 " fill="none" id="EventPipe-TaskScheduler" style="stroke: #A80036; stroke-width: 1.0;"/><polygon fill="#A80036" points="1742.69,1002.8001,1734.9127,996.7574,1737.8361,1001.6004,1732.9931,1004.5237,1742.69,1002.8001" style="stroke: #A80036; stroke-width: 1.0;"/><text fill="#000000" font-family="sans-serif" font-size="13" lengthAdjust="spacingAndGlyphs" textLength="113" x="1649.6794" y="988.0347">ExclusiveScheduler</text><!--link IEvent to IEventPipe--><path d="M956.811,90.663 C816.262,114.731 560.42,183.407 480.5,370 C460.27,417.232 478.588,472.637 501.145,515.305 " fill="none" id="IEvent-IEventPipe" style="stroke: #A80036; stroke-width: 1.0;"/><polygon fill="#A80036" points="503.626,519.918,502.8848,510.0971,501.2572,515.5147,495.8396,513.8871,503.626,519.918" style="stroke: #A80036; stroke-width: 1.0;"/><text fill="#000000" font-family="sans-serif" font-size="13" lengthAdjust="spacingAndGlyphs" textLength="67" x="427.6796" y="508.9246">SourcePipe</text><!--link IEvent to IServiceProvider--><path d="M1081.07,115.65 C1098.57,140.065 1119.11,173.574 1128.5,207 C1163.93,333.119 1145.86,492.428 1136.24,556.213 " fill="none" id="IEvent-IServiceProvider" style="stroke: #A80036; stroke-width: 1.0;"/><polygon fill="#A80036" points="1135.45,561.363,1140.7689,553.0739,1136.2085,556.4209,1132.8615,551.8604,1135.45,561.363" style="stroke: #A80036; stroke-width: 1.0;"/><text fill="#000000" font-family="sans-serif" font-size="13" lengthAdjust="spacingAndGlyphs" textLength="49" x="1142.7403" y="550.6681">Services</text><!--link IEvent to UnionType`2--><path d="M1013.66,115.569 C978.116,184.027 946.344,334.74 912.5,460 C903.509,493.275 891.427,530.983 894.027,556.096 " fill="none" id="IEvent-UnionType`2" style="stroke: #A80036; stroke-width: 1.0;"/><polygon fill="#A80036" points="894.811,561.257,897.4129,551.758,894.0595,556.3138,889.5038,552.9604,894.811,561.257" style="stroke: #A80036; stroke-width: 1.0;"/><text fill="#000000" font-family="sans-serif" font-size="13" lengthAdjust="spacingAndGlyphs" textLength="216" x="999.9593" y="550.6921">Scenario&lt;VersaCommsID,IScenario&gt;</text><!--link IEvent to UnionType`2--><path d="M1034.13,115.569 C1013.12,184.027 981.344,334.74 947.5,460 C938.509,493.275 926.427,530.983 921.676,556.096 " fill="none" id="IEvent-UnionType`2" style="stroke: #A80036; stroke-width: 1.0;"/><polygon fill="#A80036" points="920.777,561.257,926.263,553.0775,921.6356,556.3313,918.3818,551.7038,920.777,561.257" style="stroke: #A80036; stroke-width: 1.0;"/><text fill="#000000" font-family="sans-serif" font-size="13" lengthAdjust="spacingAndGlyphs" textLength="232" x="797.5744" y="550.2496">Terminal&lt;VersaCommsID,IVersaWriter&gt;</text><!--link IEvent to UnionType`2--><path d="M1054.59,115.569 C1048.12,184.027 1016.34,334.74 982.5,460 C973.434,493.553 961.224,531.614 949.02,556.724 " fill="none" id="IEvent-UnionType`2" style="stroke: #A80036; stroke-width: 1.0;"/><polygon fill="#A80036" points="946.742,561.257,954.3558,555.0096,948.9861,556.7889,947.2068,551.4191,946.742,561.257" style="stroke: #A80036; stroke-width: 1.0;"/><text fill="#000000" font-family="sans-serif" font-size="13" lengthAdjust="spacingAndGlyphs" textLength="188" x="740.0978" y="550.5349">Player&lt;VersaCommsID,IPlayer&gt;</text><!--link IEvent to UnionType`2--><path d="M1075.06,115.569 C1083.12,184.027 1051.34,334.74 1017.5,460 C1008.36,493.832 996.021,532.246 975.989,557.346 " fill="none" id="IEvent-UnionType`2" style="stroke: #A80036; stroke-width: 1.0;"/><polygon fill="#A80036" points="972.707,561.257,981.5566,556.9345,975.9213,557.427,975.4287,551.7917,972.707,561.257" style="stroke: #A80036; stroke-width: 1.0;"/><text fill="#000000" font-family="sans-serif" font-size="13" lengthAdjust="spacingAndGlyphs" textLength="182" x="999.6775" y="550.6273">Entity&lt;VersaCommsID,IEntity&gt;</text><!--link IEvent to IList`1--><path d="M1026.02,115.762 C1009.73,140.766 989.006,174.884 974.5,207 C946.787,268.357 925.635,344.78 915.366,385.435 " fill="none" id="IEvent-IList`1" style="stroke: #A80036; stroke-width: 1.0;"/><polygon fill="#A80036" points="914.049,390.69,920.1172,382.9326,915.2647,385.84,912.3573,380.9875,914.049,390.69" style="stroke: #A80036; stroke-width: 1.0;"/><text fill="#000000" font-family="sans-serif" font-size="13" lengthAdjust="spacingAndGlyphs" textLength="257" x="948.3991" y="379.9507">EventSpecificCommands&lt;ICommandGroup&gt;</text><!--link ICancelable to IEventPipe--><path d="M547.5,459.201 C547.5,477.68 547.5,499.645 547.5,519.985 " fill="none" id="ICancelable-IEventPipe" style="stroke: #A80036; stroke-width: 1.0;"/><polygon fill="none" points="540.5,459.076,547.5,439.076,554.5,459.076,540.5,459.076" style="stroke: #A80036; stroke-width: 1.0;"/><!--link IEventPipe to IObservable`1--><path d="M363.133,651.073 C337.215,667.519 313.424,687.389 295.5,711 C229.288,798.218 218.18,934.856 232.435,993.599 " fill="none" id="IEventPipe-IObservable`1" style="stroke: #A80036; stroke-width: 1.0;"/><polygon fill="#A80036" points="233.795,998.7014,235.3433,988.975,232.5078,993.8699,227.6129,991.0345,233.795,998.7014" style="stroke: #A80036; stroke-width: 1.0;"/><text fill="#000000" font-family="sans-serif" font-size="13" lengthAdjust="spacingAndGlyphs" textLength="124" x="89.3706" y="987.965">ObserveFirst&lt;IEvent&gt;</text><!--link IEventPipe to IObservable`1--><path d="M397.47,651.073 C372.215,667.519 348.424,687.389 330.5,711 C264.288,798.218 253.18,934.856 251.591,993.599 " fill="none" id="IEventPipe-IObservable`1" style="stroke: #A80036; stroke-width: 1.0;"/><polygon fill="#A80036" points="251.472,998.7014,255.6813,989.7973,251.5889,993.7028,247.6834,989.6104,251.472,998.7014" style="stroke: #A80036; stroke-width: 1.0;"/><text fill="#000000" font-family="sans-serif" font-size="13" lengthAdjust="spacingAndGlyphs" textLength="161" x="24.0357" y="998.8952">ObserveConcurrent&lt;IEvent&gt;</text><!--link IEventPipe to IObservable`1--><path d="M431.806,651.073 C407.215,667.519 383.424,687.389 365.5,711 C299.288,798.218 288.18,934.856 270.746,993.599 " fill="none" id="IEventPipe-IObservable`1" style="stroke: #A80036; stroke-width: 1.0;"/><polygon fill="#A80036" points="269.149,998.7014,275.6547,991.3071,270.6425,993.9297,268.0199,988.9175,269.149,998.7014" style="stroke: #A80036; stroke-width: 1.0;"/><text fill="#000000" font-family="sans-serif" font-size="13" lengthAdjust="spacingAndGlyphs" textLength="174" x="259.3216" y="987.965">ObserveSynchronous&lt;IEvent&gt;</text><!--link IEventPipe to CancellationToken--><path d="M738.704,628.874 C772.288,636.277 806.912,643.884 839.5,651 C962.991,677.965 999.861,664.759 1117.5,711 C1315.02,788.641 1524.63,935.96 1605.7,995.7747 " fill="none" id="IEventPipe-CancellationToken" style="stroke: #A80036; stroke-width: 1.0;"/><polygon fill="#A80036" points="1609.93,998.9004,1605.0697,990.3343,1605.909,995.9286,1600.3148,996.7679,1609.93,998.9004" style="stroke: #A80036; stroke-width: 1.0;"/><text fill="#000000" font-family="sans-serif" font-size="13" lengthAdjust="spacingAndGlyphs" textLength="63" x="1531.1996" y="988.1524">MainToken</text><!--link IEventPipe to AsyncLock--><path d="M685.412,651.048 C713.293,668.03 740.938,688.113 763.5,711 C787.744,735.593 805.591,771.405 815.98,796.089 " fill="none" id="IEventPipe-AsyncLock" style="stroke: #A80036; stroke-width: 1.0;"/><polygon fill="#A80036" points="817.958,800.871,818.2134,791.0255,816.0465,796.2508,810.8211,794.0839,817.958,800.871" style="stroke: #A80036; stroke-width: 1.0;"/><text fill="#000000" font-family="sans-serif" font-size="13" lengthAdjust="spacingAndGlyphs" textLength="96" x="806.195" y="790.1079">ExclusionLocker</text><!--link IEventPipe to TaskScheduler--><path d="M738.593,631.556 C772.11,638.643 806.74,645.45 839.5,651 C1062.35,688.755 1132.84,631.715 1344.5,711 C1525.75,778.892 1704.85,933.244 1772.36,995.3663 " fill="none" id="IEventPipe-TaskScheduler" style="stroke: #A80036; stroke-width: 1.0;"/><polygon fill="#A80036" points="1776.27,998.9676,1772.3813,989.9189,1772.6003,995.5716,1766.9477,995.7905,1776.27,998.9676" style="stroke: #A80036; stroke-width: 1.0;"/><text fill="#000000" font-family="sans-serif" font-size="13" lengthAdjust="spacingAndGlyphs" textLength="113" x="1784.5392" y="988.2995">ExclusiveScheduler</text><!--link IEventPreprocessor to IEventPreProcessor`1--><path d="M1802.5,135.671 C1802.5,163.432 1802.5,195.988 1802.5,220.459 " fill="none" id="IEventPreprocessor-IEventPreProcessor`1" style="stroke: #A80036; stroke-width: 1.0;"/><polygon fill="none" points="1795.5,135.589,1802.5,115.589,1809.5,135.589,1795.5,135.589" style="stroke: #A80036; stroke-width: 1.0;"/><!--link IEvent to IMessageEvent--><path d="M972.272,126.09 C918.81,158.203 849.868,199.615 803.801,227.285 " fill="none" id="IEvent-IMessageEvent" style="stroke: #A80036; stroke-width: 1.0;"/><polygon fill="none" points="969.005,119.887,989.754,115.589,976.214,131.888,969.005,119.887" style="stroke: #A80036; stroke-width: 1.0;"/><!--link IMessageEvent to MessageEvent--><path d="M746.994,309.761 C744.485,329.143 741.64,351.119 739.212,369.878 " fill="none" id="IMessageEvent-MessageEvent" style="stroke: #A80036; stroke-width: 1.0;"/><polygon fill="none" points="740.087,308.592,749.596,289.656,753.971,310.389,740.087,308.592" style="stroke: #A80036; stroke-width: 1.0;"/><!--link MessageEvent to IEventPipe--><path d="M684.631,460.271 C665.682,477.437 643.553,497.485 622.669,516.403 " fill="none" id="MessageEvent-IEventPipe" style="stroke: #A80036; stroke-width: 1.0;"/><polygon fill="#A80036" points="618.785,519.922,628.1405,516.8439,622.4905,516.565,622.7694,510.9151,618.785,519.922" style="stroke: #A80036; stroke-width: 1.0;"/><text fill="#000000" font-family="sans-serif" font-size="13" lengthAdjust="spacingAndGlyphs" textLength="67" x="556.1539" y="508.9291">SourcePipe</text><!--link MessageEvent to IServiceProvider--><path d="M835.167,453.668 C910.949,481.804 1002.803,516.058 1011.5,520 C1037.25,531.672 1065.11,546.506 1087.51,559.005 " fill="none" id="MessageEvent-IServiceProvider" style="stroke: #A80036; stroke-width: 1.0;"/><polygon fill="#A80036" points="1091.91,561.472,1086.0114,553.5849,1087.5473,559.0292,1082.103,560.5652,1091.91,561.472" style="stroke: #A80036; stroke-width: 1.0;"/><text fill="#000000" font-family="sans-serif" font-size="13" lengthAdjust="spacingAndGlyphs" textLength="49" x="1088.0432" y="550.805">Services</text><!--link MessageEvent to UnionType`2--><path d="M749.145,460.271 C777.732,491.6 826.289,532.529 867.029,558.673 " fill="none" id="MessageEvent-UnionType`2" style="stroke: #A80036; stroke-width: 1.0;"/><polygon fill="#A80036" points="871.45,561.471,865.9841,553.2781,867.225,558.7972,861.7059,560.0381,871.45,561.471" style="stroke: #A80036; stroke-width: 1.0;"/><text fill="#000000" font-family="sans-serif" font-size="13" lengthAdjust="spacingAndGlyphs" textLength="216" x="884.6268" y="550.6162">Scenario&lt;VersaCommsID,IScenario&gt;</text><!--link MessageEvent to UnionType`2--><path d="M772.568,460.271 C805.806,491.473 852.824,532.198 886.171,558.355 " fill="none" id="MessageEvent-UnionType`2" style="stroke: #A80036; stroke-width: 1.0;"/><polygon fill="#A80036" points="890.168,561.471,885.53,552.7825,886.2249,558.3966,880.6109,559.0914,890.168,561.471" style="stroke: #A80036; stroke-width: 1.0;"/><text fill="#000000" font-family="sans-serif" font-size="13" lengthAdjust="spacingAndGlyphs" textLength="232" x="747.4185" y="546.4208">Terminal&lt;VersaCommsID,IVersaWriter&gt;</text><!--link MessageEvent to UnionType`2--><path d="M795.724,460.051 C833.325,490.907 878.592,531.159 904.86,557.406 " fill="none" id="MessageEvent-UnionType`2" style="stroke: #A80036; stroke-width: 1.0;"/><polygon fill="#A80036" points="908.595,561.175,905.1004,551.967,905.0752,557.6238,899.4184,557.5986,908.595,561.175" style="stroke: #A80036; stroke-width: 1.0;"/><text fill="#000000" font-family="sans-serif" font-size="13" lengthAdjust="spacingAndGlyphs" textLength="188" x="673.3351" y="550.85">Player&lt;VersaCommsID,IPlayer&gt;</text><!--link MessageEvent to UnionType`2--><path d="M819.114,460.051 C861.29,490.781 905.205,530.829 924.52,557.083 " fill="none" id="MessageEvent-UnionType`2" style="stroke: #A80036; stroke-width: 1.0;"/><polygon fill="#A80036" points="927.405,561.175,925.4907,551.514,924.525,557.0878,918.9511,556.1221,927.405,561.175" style="stroke: #A80036; stroke-width: 1.0;"/><text fill="#000000" font-family="sans-serif" font-size="13" lengthAdjust="spacingAndGlyphs" textLength="182" x="949.6266" y="550.6463">Entity&lt;VersaCommsID,IEntity&gt;</text><!--link MessageEvent to IList`1--><path d="M848.039,415 C850.865,415 853.692,415 856.519,415 " fill="none" id="MessageEvent-IList`1" style="stroke: #A80036; stroke-width: 1.0;"/><polygon fill="#A80036" points="869.747,415,860.747,411,864.747,415,860.747,419,869.747,415" style="stroke: #A80036; stroke-width: 1.0;"/><line style="stroke: #A80036; stroke-width: 1.0;" x1="864.747" x2="856.747" y1="415" y2="415"/><polygon fill="#FFFFFF" points="835.014,415,841.014,419,847.014,415,841.014,411,835.014,415" style="stroke: #A80036; stroke-width: 1.0;"/><text fill="#000000" font-family="sans-serif" font-size="13" lengthAdjust="spacingAndGlyphs" textLength="257" x="952.763" y="405.2577">EventSpecificCommands&lt;ICommandGroup&gt;</text><!--
@startuml
class AsyncManualResetEvent {
    + WaitAsync() : Task
    + Set() : void
    + Reset() : void
    + Dispose() : void
}
class "TaskCompletionSource`1"<T> {
}
IDisposable <|- - AsyncManualResetEvent
AsyncManualResetEvent o-> "m_tcs<bool>" "TaskCompletionSource`1"
class EventPipe {
    - _isCompleted : bool
    - _gate : object
    + IsDisposed : bool <<get>> <<protected set>>
    + ChainEvent(evnt:IEvent, doPreprocess:bool) : Task
    + Dispose() : void
    + <<virtual>> ProcessEvent(evnt:IEvent) : Task
    + Complete() : void
    + RunExclusiveOperation(action:Action, cancelToken:CancellationToken) : Task
    + RunExclusiveOperation(action:Action) : Task
    + SubscribePreprocess(observer:IObserver<IEvent, IEvent>) : IDisposable
    # <<virtual>> Dispose(disposing:bool) : void
    + EventPipe(onReceiveScheduler:IScheduler)
    + EventPipe()
}
class "Subject`1"<T> {
}
class "ConcurrentDictionary`2"<T1,T2> {
}
class "IObservable`1"<T> {
}
IEventPipe <|- - EventPipe
EventPipe - -> "_allScheduler" TaskPoolScheduler
EventPipe - -> "_allSubject<IEvent>" "Subject`1"
EventPipe - -> "_incomingEventSubject<(IEvent @event, bool doPreProcessing)>" "Subject`1"
EventPipe - -> "_initialScheduler" IScheduler
EventPipe - -> "_readerScheduler" TaskPoolScheduler
EventPipe - -> "_readSubject<IEvent>" "Subject`1"
EventPipe - -> "_syncContext" SynchronizationContext
EventPipe - -> "_tpschedPair" ConcurrentExclusiveSchedulerPair
EventPipe - -> "_writeSubject<IEvent>" "Subject`1"
EventPipe - -> "exFactory" TaskFactory
EventPipe o-> "_preProcessing<IObserver<IEvent, IEvent>,IDisposable>" "ConcurrentDictionary`2"
EventPipe o-> "ExclusionLocker" AsyncLock
EventPipe - -> "MainToken" CancellationToken
EventPipe - -> "ObserveConcurrent<IEvent>" "IObservable`1"
EventPipe - -> "ObserveFirst<IEvent>" "IObservable`1"
EventPipe - -> "ObserveSynchronous<IEvent>" "IObservable`1"
EventPipe - -> "TokenSource" CancellationTokenSource
EventPipe - -> "ExclusiveScheduler" TaskScheduler
interface IEvent {
    IgnoreThis : bool <<get>> <<set>>
    IsSystemMessage : bool <<get>> <<set>>
}
class EventHelpers <<static>> {
    + {static} GetPlayer(evnt:IEvent, GetPlayerFunc:Func<VersaCommsID, TPlayer>) : TPlayer
    + {static} GetPlayerID(evnt:IEvent) : VersaCommsID
    + {static} GetEntity(evnt:IEvent, getEntityFunc:Func<VersaCommsID, TEntity>) : TEntity
    + {static} GetEntityID(evnt:IEvent) : VersaCommsID
    + {static} GetScenario(evnt:IEvent, getScenarioFunction:Func<VersaCommsID, TScenario>) : TScenario
    + {static} GetScenarioID(evnt:IEvent) : VersaCommsID
}
class "UnionType`2"<T1,T2> {
}
class "IList`1"<T> {
}
IEvent - -> "SourcePipe" IEventPipe
IEvent - -> "Services" IServiceProvider
IEvent - -> "Scenario<VersaCommsID,IScenario>" "UnionType`2"
IEvent - -> "Terminal<VersaCommsID,IVersaWriter>" "UnionType`2"
IEvent - -> "Player<VersaCommsID,IPlayer>" "UnionType`2"
IEvent - -> "Entity<VersaCommsID,IEntity>" "UnionType`2"
IEvent - -> "EventSpecificCommands<ICommandGroup>" "IList`1"
interface IEventPipe {
    SubscribePreprocess(preprocessor:IObserver<IEvent, IEvent>) : IDisposable
    Complete() : void
    RunExclusiveOperation(action:Action) : Task
    RunExclusiveOperation(action:Action, token:CancellationToken) : Task
    ChainEvent(evnt:IEvent, doPreprocess:bool) : Task
    ProcessEvent(evnt:IEvent) : Task
}
class "IObservable`1"<T> {
}
ICancelable <|- - IEventPipe
IEventPipe - -> "ObserveFirst<IEvent>" "IObservable`1"
IEventPipe - -> "ObserveConcurrent<IEvent>" "IObservable`1"
IEventPipe - -> "ObserveSynchronous<IEvent>" "IObservable`1"
IEventPipe - -> "MainToken" CancellationToken
IEventPipe - -> "ExclusionLocker" AsyncLock
IEventPipe - -> "ExclusiveScheduler" TaskScheduler
interface "IEventPreProcessor`1"<T> {
    <<new>> PreProcessAsync(newEvent:TI) : Task<TI>
    <<new>> PreProcess(newEvent:TI) : TI
}
interface IEventPreprocessor {
    PreProcessAsync(newEvent:T) : Task<T>
    PreProcess(newEvent:T) : T
}
IEventPreprocessor <|- - "IEventPreProcessor`1"
interface IMessageEvent {
    FullMessage : string <<get>> <<set>>
}
IEvent <|- - IMessageEvent
class MessageEvent {
    + IgnoreThis : bool <<get>> <<set>>
    + IsSystemMessage : bool <<get>> <<set>>
    + FullMessage : string <<get>> <<set>>
}
class "UnionType`2"<T1,T2> {
}
class "IList`1"<T> {
}
IMessageEvent <|- - MessageEvent
MessageEvent - -> "SourcePipe" IEventPipe
MessageEvent - -> "Services" IServiceProvider
MessageEvent - -> "Scenario<VersaCommsID,IScenario>" "UnionType`2"
MessageEvent - -> "Terminal<VersaCommsID,IVersaWriter>" "UnionType`2"
MessageEvent - -> "Player<VersaCommsID,IPlayer>" "UnionType`2"
MessageEvent - -> "Entity<VersaCommsID,IEntity>" "UnionType`2"
MessageEvent o-> "EventSpecificCommands<ICommandGroup>" "IList`1"

@enduml

PlantUML version 1.2019.03(Sun Mar 10 07:04:44 EDT 2019)
(GPL source distribution)
Java Runtime: Java(TM) SE Runtime Environment
JVM: Java HotSpot(TM) 64-Bit Server VM
Java Version: 9.0.4+11
Operating System: Windows 10
OS Version: 10.0
Default Encoding: Cp1252
Language: en
Country: US
--></g></svg>